<svg xmlns="http://www.w3.org/2000/svg" viewBox="0 0 100 100"><path fill="#c7ede6" d="M87.215,56.71C88.35,54.555,89,52.105,89,49.5c0-6.621-4.159-12.257-10.001-14.478 C78.999,35.015,79,35.008,79,35c0-11.598-9.402-21-21-21c-9.784,0-17.981,6.701-20.313,15.757C36.211,29.272,34.638,29,33,29 c-7.692,0-14.023,5.793-14.89,13.252C12.906,43.353,9,47.969,9,53.5C9,59.851,14.149,65,20.5,65c0.177,0,0.352-0.012,0.526-0.022 C21.022,65.153,21,65.324,21,65.5C21,76.822,30.178,86,41.5,86c6.437,0,12.175-2.972,15.934-7.614C59.612,80.611,62.64,82,66,82 c4.65,0,8.674-2.65,10.666-6.518C77.718,75.817,78.837,76,80,76c6.075,0,11-4.925,11-11C91,61.689,89.53,58.727,87.215,56.71z"/><path fill="#fdfcef" d="M68,33h-5.75c-2.485,0.75-4.5-1.265-4.5-3.75c0-2.333,1.782-4.229,4.055-4.455 c-0.022-0.181-0.055-0.358-0.055-0.545c0-2.485,2.015-4.5,4.5-4.5c1.438,0,2.703,0.686,3.527,1.736 c0.14-2.636,2.302-4.736,4.973-4.736c2.761,0,5,2.239,5,5c0,0.446-0.077,0.87-0.187,1.282c0.642-0.777,1.6-1.282,2.687-1.282 c1.781,0,3.234,1.335,3.455,3.055c0.181-0.022,0.358-0.055,0.545-0.055c2.485,0,4.5,2.015,4.5,4.5s-2.015,4.5-4.5,3.75h-9.5H71v1 h-3V33z"/><path fill="#472b29" d="M74.5,16c3.033,0,5.5,2.467,5.5,5.5c0,0.016,0,0.031,0,0.047C80.602,21.192,81.29,21,82,21 c1.831,0,3.411,1.261,3.858,3.005C85.905,24.002,85.952,24,86,24c3.099,0,5.549,2.834,4.893,6.047 C90.413,32.398,88.204,34,85.804,34l-14.679,0c-0.276,0-0.5-0.224-0.5-0.5s0.224-0.5,0.5-0.5l14.718,0 c1.92,0,3.687-1.282,4.071-3.163C90.439,27.267,88.479,25,86,25c-0.117,0-0.23,0.017-0.343,0.032l-0.141,0.019 c-0.021,0.003-0.041,0.004-0.062,0.004c-0.246,0-0.462-0.185-0.495-0.437C84.768,23.125,83.496,22,82,22 c-0.885,0-1.723,0.401-2.301,1.1c-0.098,0.118-0.241,0.182-0.386,0.182c-0.078,0-0.156-0.018-0.228-0.056 c-0.209-0.107-0.314-0.346-0.254-0.573c0.16-0.6,0.202-1.069,0.147-1.549c-0.24-2.127-1.959-3.909-4.092-4.088 c-2.551-0.215-4.725,1.728-4.859,4.246c-0.011,0.208-0.15,0.387-0.349,0.45c-0.05,0.016-0.101,0.024-0.152,0.024 c-0.15,0-0.296-0.069-0.392-0.192C68.362,20.563,67.221,20,66,20c-2.206,0-4,1.794-4,4c0,0.117,0.017,0.23,0.032,0.343 l0.019,0.141c0.016,0.134-0.022,0.268-0.106,0.373c-0.084,0.105-0.207,0.172-0.34,0.185c-2.352,0.234-4.042,2.429-3.504,4.865 C58.509,31.76,60.275,33,62.173,33l5.952,0c0.276,0,0.5,0.224,0.5,0.5s-0.224,0.5-0.5,0.5l-5.938,0 c-2.467,0-4.708-1.704-5.115-4.138c-0.462-2.763,1.344-5.22,3.931-5.74C61.001,24.082,61,24.041,61,24c0-2.757,2.243-5,5-5 c1.176,0,2.293,0.416,3.183,1.164C69.781,17.76,71.945,16,74.5,16L74.5,16z"/><path fill="#472b29" d="M76.25 23.25c1.403 0 2.609.999 2.913 2.341.367-.222.786-.341 1.212-.341 1.202 0 2.198.897 2.353 2.068.203-.045.396-.068.585-.068 1.529 0 2.811 1.2 2.918 2.732.009.138-.094.257-.232.267-.006 0-.012 0-.018 0-.13 0-.24-.101-.249-.232-.089-1.271-1.151-2.268-2.419-2.268-.229 0-.47.042-.738.127-.022.007-.045.01-.067.01-.055 0-.11-.02-.156-.054-.064-.047-.102-.129-.102-.209 0-1.034-.841-1.875-1.875-1.875-.447 0-.885.168-1.231.473-.047.041-.106.063-.165.063-.032 0-.063-.006-.093-.019-.088-.035-.148-.117-.155-.212-.102-1.292-1.191-2.305-2.479-2.305-.208 0-.425.034-.682.107-.023.007-.047.01-.07.01-.109 0-.207-.073-.239-.182-.038-.133.039-.271.172-.309C75.733 23.29 75.994 23.25 76.25 23.25L76.25 23.25zM62.367 24.75c1.326 0 2.508.897 2.874 2.182.038.133-.039.271-.172.309-.023.007-.046.01-.068.01-.109 0-.209-.072-.24-.182-.305-1.071-1.289-1.818-2.393-1.818-.117 0-.23.014-.342.029-.012.002-.023.003-.035.003-.121 0-.229-.092-.246-.217-.019-.137.077-.263.214-.281C62.092 24.766 62.228 24.75 62.367 24.75L62.367 24.75z"/><path fill="#fff" d="M15.405 51H5.5C5.224 51 5 50.776 5 50.5S5.224 50 5.5 50h9.905c.276 0 .5.224.5.5S15.682 51 15.405 51zM18.5 51h-1c-.276 0-.5-.224-.5-.5s.224-.5.5-.5h1c.276 0 .5.224.5.5S18.777 51 18.5 51zM23.491 53H14.5c-.276 0-.5-.224-.5-.5s.224-.5.5-.5h8.991c.276 0 .5.224.5.5S23.767 53 23.491 53zM12.5 53h-1c-.276 0-.5-.224-.5-.5s.224-.5.5-.5h1c.276 0 .5.224.5.5S12.777 53 12.5 53zM9.5 53h-2C7.224 53 7 52.776 7 52.5S7.224 52 7.5 52h2c.276 0 .5.224.5.5S9.777 53 9.5 53zM15.5 55h-2c-.276 0-.5-.224-.5-.5s.224-.5.5-.5h2c.276 0 .5.224.5.5S15.776 55 15.5 55zM18.5 46c-.177 0-.823 0-1 0-.276 0-.5.224-.5.5 0 .276.224.5.5.5.177 0 .823 0 1 0 .276 0 .5-.224.5-.5C19 46.224 18.776 46 18.5 46zM18.5 48c-.177 0-4.823 0-5 0-.276 0-.5.224-.5.5 0 .276.224.5.5.5.177 0 4.823 0 5 0 .276 0 .5-.224.5-.5C19 48.224 18.776 48 18.5 48zM23.5 50c-.177 0-2.823 0-3 0-.276 0-.5.224-.5.5 0 .276.224.5.5.5.177 0 2.823 0 3 0 .276 0 .5-.224.5-.5C24 50.224 23.776 50 23.5 50zM84 66H74c-.276 0-.5-.224-.5-.5S73.724 65 74 65h10c.276 0 .5.224.5.5S84.276 66 84 66zM88 66h-2c-.276 0-.5-.224-.5-.5S85.724 65 86 65h2c.276 0 .5.224.5.5S88.276 66 88 66zM93 68H83c-.276 0-.5-.224-.5-.5S82.724 67 83 67h10c.276 0 .5.224.5.5S93.277 68 93 68zM81 68h-1c-.276 0-.5-.224-.5-.5S79.724 67 80 67h1c.276 0 .5.224.5.5S81.276 68 81 68zM77.875 68H76c-.276 0-.5-.224-.5-.5S75.724 67 76 67h1.875c.276 0 .5.224.5.5S78.151 68 77.875 68zM87 64h-5c-.276 0-.5-.224-.5-.5S81.724 63 82 63h5c.276 0 .5.224.5.5S87.277 64 87 64zM84 70h-2c-.276 0-.5-.224-.5-.5S81.724 69 82 69h2c.276 0 .5.224.5.5S84.276 70 84 70z"/><g><path fill="#fde751" d="M52.787,26.822l6.289,12.832c0.224,0.457,0.659,0.774,1.162,0.847l14.042,2.033 c1.261,0.183,1.768,1.731,0.858,2.624l-10.182,9.991c-0.36,0.354-0.525,0.862-0.439,1.359l2.417,14.122 c0.216,1.261-1.11,2.22-2.24,1.621l-12.569-6.665c-0.451-0.239-0.992-0.239-1.443,0l-12.569,6.665 c-1.13,0.599-2.456-0.36-2.24-1.621l2.417-14.122c0.085-0.498-0.079-1.006-0.439-1.359l-10.182-9.991 c-0.91-0.893-0.403-2.441,0.858-2.624L42.569,40.5c0.503-0.073,0.939-0.39,1.162-0.847l6.289-12.832 C50.584,25.672,52.223,25.672,52.787,26.822z"/><path fill="#472b29" d="M65.418,73.133c-0.358,0-0.719-0.087-1.052-0.264l-12.569-6.666c-0.246-0.131-0.54-0.131-0.786,0 l-12.57,6.666c-0.76,0.404-1.667,0.339-2.363-0.164c-0.697-0.505-1.04-1.346-0.895-2.193L37.6,56.39 c0.046-0.271-0.043-0.549-0.239-0.741l-10.182-9.991c-0.612-0.601-0.827-1.48-0.561-2.296s0.959-1.398,1.809-1.521l14.042-2.033 c0.275-0.04,0.511-0.212,0.633-0.462l6.29-12.831c0.379-0.774,1.149-1.255,2.01-1.255c0.001,0,0.001,0,0.001,0 c0.861,0,1.633,0.48,2.013,1.254v0.001l6.288,12.831c0.122,0.249,0.358,0.422,0.634,0.461l14.043,2.034 c0.849,0.122,1.541,0.705,1.808,1.521c0.267,0.814,0.053,1.694-0.56,2.296l-10.183,9.991c-0.196,0.192-0.286,0.47-0.239,0.741 l2.418,14.122c0.145,0.848-0.198,1.688-0.896,2.192C66.338,72.988,65.879,73.133,65.418,73.133z M51.403,64.705 c0.36,0,0.721,0.087,1.05,0.262l12.569,6.666c0.29,0.154,0.622,0.13,0.887-0.063c0.266-0.192,0.391-0.499,0.335-0.822 l-2.418-14.122c-0.123-0.725,0.116-1.463,0.64-1.978l10.183-9.991c0.232-0.229,0.312-0.551,0.21-0.861 c-0.102-0.31-0.355-0.523-0.679-0.57l-14.042-2.033c-0.732-0.104-1.365-0.565-1.691-1.231L52.158,27.13 c-0.145-0.294-0.427-0.471-0.755-0.471l0,0c-0.328,0-0.61,0.177-0.754,0.471L44.36,39.961c-0.326,0.666-0.958,1.127-1.691,1.232 l-14.042,2.032c-0.323,0.047-0.577,0.261-0.678,0.571c-0.101,0.311-0.023,0.632,0.21,0.86l10.182,9.991 c0.524,0.515,0.763,1.254,0.639,1.978l-2.417,14.122c-0.055,0.323,0.07,0.631,0.335,0.822c0.266,0.192,0.597,0.217,0.887,0.063 l12.569-6.666C50.683,64.792,51.043,64.705,51.403,64.705z"/></g><g><path fill="#472b29" d="M35.782,73.449c-0.093,0-0.188-0.026-0.272-0.081c-0.231-0.15-0.297-0.46-0.146-0.691l2.052-3.154 c0.15-0.231,0.46-0.297,0.691-0.146c0.231,0.15,0.297,0.46,0.146,0.691l-2.052,3.154C36.105,73.369,35.945,73.449,35.782,73.449z"/></g><g><path fill="#472b29" d="M57.175,43.609c-0.095,0-0.186-0.055-0.228-0.146l-1.146-2.517 c-0.058-0.126-0.002-0.273,0.124-0.331c0.122-0.058,0.272-0.002,0.331,0.124l1.146,2.517c0.058,0.126,0.002,0.273-0.124,0.331 C57.245,43.603,57.21,43.609,57.175,43.609z"/></g><g><path fill="#472b29" d="M52.939,34.197c-0.096,0-0.187-0.055-0.229-0.147l-1.545-3.447c-0.056-0.126,0-0.274,0.126-0.331 c0.125-0.055,0.274,0,0.331,0.126l1.545,3.447c0.056,0.126,0,0.274-0.126,0.331C53.009,34.19,52.974,34.197,52.939,34.197z"/></g><g><path fill="#472b29" d="M41.34,67.117c-0.089,0-0.176-0.048-0.221-0.133c-0.065-0.122-0.019-0.273,0.104-0.338l6.969-3.692 c0.122-0.064,0.273-0.02,0.338,0.104c0.065,0.122,0.019,0.273-0.104,0.338l-6.969,3.692C41.42,67.107,41.38,67.117,41.34,67.117z"/></g><g><path fill="#472b29" d="M70.083,45.341c-0.011,0-0.021-0.001-0.033-0.002l-13.005-1.717 c-0.137-0.019-0.232-0.144-0.215-0.281c0.018-0.136,0.135-0.232,0.281-0.215l13.005,1.717c0.137,0.019,0.232,0.144,0.215,0.281 C70.314,45.249,70.207,45.341,70.083,45.341z"/></g><g><path fill="#472b29" d="M32.284,45.341c-0.124,0-0.231-0.093-0.248-0.219c-0.017-0.137,0.08-0.262,0.217-0.279l4.977-0.629 c0.133-0.015,0.262,0.08,0.279,0.217c0.017,0.137-0.08,0.262-0.217,0.279l-4.977,0.629C32.305,45.34,32.295,45.341,32.284,45.341z"/></g><g><path fill="#472b29" d="M38.974,44.396c-0.124,0-0.231-0.092-0.248-0.219c-0.017-0.137,0.08-0.262,0.217-0.279l4.977-0.63 c0.131-0.013,0.262,0.078,0.279,0.217c0.017,0.137-0.08,0.262-0.217,0.279l-4.977,0.63C38.995,44.396,38.985,44.396,38.974,44.396z"/></g><g><path fill="#472b29" d="M54.816,38.531c-0.096,0-0.187-0.055-0.229-0.147l-0.772-1.724c-0.056-0.126,0-0.274,0.126-0.331 s0.274,0,0.331,0.126l0.772,1.724c0.056,0.126,0,0.274-0.126,0.331C54.886,38.524,54.851,38.531,54.816,38.531z"/></g><g><path fill="#472b29" d="M41.569,57.376c-0.017,0-0.034-0.002-0.05-0.005c-0.135-0.027-0.223-0.159-0.195-0.295l0.551-2.71 c0.028-0.135,0.161-0.218,0.295-0.195c0.135,0.027,0.223,0.159,0.195,0.295l-0.551,2.71C41.79,57.294,41.686,57.376,41.569,57.376z"/></g><g><path fill="#472b29" d="M39.247,68.469c-0.017,0-0.035-0.002-0.052-0.005c-0.135-0.028-0.222-0.161-0.193-0.296l0.774-3.697 c0.028-0.136,0.163-0.215,0.296-0.194c0.135,0.028,0.222,0.161,0.193,0.296l-0.774,3.697 C39.466,68.388,39.362,68.469,39.247,68.469z"/></g><g><path fill="#472b29" d="M42.207,54.712c-0.062,0-0.124-0.022-0.172-0.068l-9.517-9.028 c-0.101-0.096-0.104-0.254-0.009-0.354s0.253-0.104,0.353-0.01l9.517,9.028c0.101,0.096,0.104,0.254,0.009,0.354 C42.339,54.686,42.272,54.712,42.207,54.712z"/></g><g><path fill="#472b29" d="M40.659,62.01c-0.017,0-0.035-0.002-0.052-0.005c-0.135-0.028-0.222-0.161-0.193-0.296l0.387-1.849 c0.028-0.136,0.162-0.219,0.296-0.194c0.135,0.028,0.222,0.161,0.193,0.296l-0.387,1.849C40.879,61.929,40.775,62.01,40.659,62.01z"/></g><g><path fill="#fdfcef" d="M27.25,76.5c0,0-1.567,0-3.5,0s-3.5-1.567-3.5-3.5c0-1.781,1.335-3.234,3.055-3.455 C23.277,69.366,23.25,69.187,23.25,69c0-1.933,1.567-3.5,3.5-3.5c1.032,0,1.95,0.455,2.59,1.165 c0.384-1.808,1.987-3.165,3.91-3.165c2.209,0,4,1.791,4,4c0,0.191-0.03,0.374-0.056,0.558c0.428-0.344,0.965-0.558,1.556-0.558 c1.228,0,2.245,0.887,2.455,2.055c0.179-0.028,0.358-0.055,0.545-0.055c1.933,0,3.5,1.567,3.5,3.5s-1.567,3.5-3.5,3.5 s-7.5,0-7.5,0V77h-7V76.5z"/><path fill="#472b29" d="M25.5 72c.138 0 .25-.112.25-.25 0-1.223-.995-2.218-2.218-2.218-.034.009-.737-.001-1.244.136-.133.036-.212.173-.176.306.036.134.173.213.306.176.444-.12 1.1-.12 1.113-.118.948 0 1.719.771 1.719 1.718C25.25 71.888 25.362 72 25.5 72zM32.25 76A.5.5 0 1 0 32.25 77 .5.5 0 1 0 32.25 76z"/><path fill="#472b29" d="M23.75,77h3.5c0.276,0,0.5-0.224,0.5-0.5s-0.224-0.5-0.5-0.5h-3.5c-1.654,0-3-1.346-3-3 c0-1.496,1.125-2.768,2.618-2.959c0.134-0.018,0.255-0.088,0.336-0.196s0.115-0.244,0.094-0.377 C23.775,69.314,23.75,69.16,23.75,69c0-1.654,1.346-3,3-3c0.85,0,1.638,0.355,2.219,1c0.125,0.139,0.321,0.198,0.5,0.148 c0.182-0.049,0.321-0.195,0.36-0.379C30.17,65.165,31.609,64,33.25,64c1.93,0,3.5,1.57,3.5,3.5c0,0.143-0.021,0.28-0.041,0.418 c-0.029,0.203,0.063,0.438,0.242,0.54c0.179,0.102,0.396,0.118,0.556-0.01C37.872,68.155,38.301,68,38.75,68 c0.966,0,1.792,0.691,1.963,1.644c0.048,0.267,0.296,0.446,0.569,0.405C41.436,70.025,41.59,70,41.75,70c1.654,0,3,1.346,3,3 s-1.346,3-3,3h-7.5c-0.276,0-0.5,0.224-0.5,0.5s0.224,0.5,0.5,0.5h7.5c2.206,0,4-1.794,4-4s-1.794-4-4-4 c-0.059,0-0.116,0.002-0.174,0.006C41.162,67.82,40.039,67,38.75,67c-0.349,0-0.689,0.061-1.011,0.18 C37.574,64.847,35.624,63,33.25,63c-1.831,0-3.466,1.127-4.153,2.774C28.417,65.276,27.595,65,26.75,65c-2.206,0-4,1.794-4,4 c0,0.048,0.001,0.095,0.004,0.142C21.011,69.59,19.75,71.169,19.75,73C19.75,75.206,21.544,77,23.75,77z"/><path fill="#472b29" d="M29.25,76c0.159,0,0.841,0,1,0c0.276,0,0.5,0.224,0.5,0.5c0,0.276-0.224,0.5-0.5,0.5 c-0.159,0-0.841,0-1,0c-0.276,0-0.5-0.224-0.5-0.5C28.75,76.224,28.974,76,29.25,76z"/></g></svg>