<svg xmlns="http://www.w3.org/2000/svg" viewBox="0 0 64 64"><radialGradient id="jnZ4DdbF0X_ZS62Z2iohga" cx="32.5" cy="32" r="31.751" gradientUnits="userSpaceOnUse" spreadMethod="reflect"><stop offset="0" stop-color="#f4e9c3"/><stop offset=".219" stop-color="#f8eecd"/><stop offset=".644" stop-color="#fdf4dc"/><stop offset="1" stop-color="#fff6e1"/></radialGradient><path fill="url(#jnZ4DdbF0X_ZS62Z2iohga)" d="M52.5,51H56c3.314,0,6-2.686,6-6v0c0-3.314-2.686-6-6-6h-8.563c0.314-1.587-0.767-3,0.063-3 c0,0,0.5-9.9,0.5-11c0-1.1,0.9-2,2-2l11.411,0.008c1.14,0,2.2-0.72,2.5-1.82c0.44-1.66-0.82-3.18-2.41-3.18l-4.968,0 c-0.997,0-1.928-0.675-2.093-1.658c-0.21-1.249,0.759-2.342,1.971-2.342h2c1.85,0,3.32-1.69,2.94-3.6c-0.28-1.43-1.62-2.4-3.07-2.4 L45.5,8C44.67,8,44,7.33,44,6.5C44,5.67,44.67,5,45.5,5l5.905,0c1.139,0,2.206-0.719,2.505-1.818C54.361,1.521,53.101,0,51.5,0 L7.595,0C6.456,0,5.389,0.719,5.091,1.818C4.639,3.479,5.899,5,7.5,5h3c0.69,0,1.32,0.28,1.77,0.73 c0.417,0.417,0.688,0.988,0.725,1.618C13.083,8.804,11.799,10,10.34,10l-6.209,0c-1.451,0-2.789,0.972-3.071,2.395 C0.681,14.307,2.152,16,4,16h21c0.35,0,0.69-0.07,1-0.19V23H13v9l4.34,0c1.458,0,2.742,1.196,2.655,2.652 c-0.038,0.63-0.309,1.201-0.725,1.618C18.82,36.72,18.19,37,17.5,37l-7.856,0c-1.308,0-2.5,0.94-2.631,2.241 C6.862,40.737,8.035,42,9.5,42h4c1.209,0,2.218,0.859,2.45,2L5.712,44c-2.347,0-4.453,1.704-4.689,4.038 C0.752,50.718,2.873,53,5.5,53l18.856,0c1.308,0,2.5,0.94,2.631,2.241C27.138,56.737,25.965,58,24.5,58l-5.335,0 c-1.626,0-3.079,1.221-3.161,2.844C15.917,62.575,17.288,64,19,64h37.835c1.626,0,3.079-1.221,3.161-2.844 C60.083,59.425,58.712,58,57,58l-4.5,0c-1.933,0-3.5-1.567-3.5-3.5v0C49,52.567,50.567,51,52.5,51z"/><linearGradient id="jnZ4DdbF0X_ZS62Z2iohgb" x1="36.5" x2="36.5" y1="38.047" y2="49.917" gradientUnits="userSpaceOnUse" spreadMethod="reflect"><stop offset="0" stop-color="#a4a4a4"/><stop offset=".63" stop-color="#7f7f7f"/><stop offset="1" stop-color="#6f6f6f"/><stop offset="1" stop-color="#6f6f6f"/></linearGradient><path fill="url(#jnZ4DdbF0X_ZS62Z2iohgb)" d="M45,46h-3l-2-6h-7l-2,6h-3c-1.1,0-2,0.9-2,2c0,1.1,0.9,2,2,2h17c1.1,0,2-0.9,2-2 C47,46.9,46.1,46,45,46z"/><linearGradient id="jnZ4DdbF0X_ZS62Z2iohgc" x1="36.5" x2="36.5" y1="14" y2="58.757" gradientUnits="userSpaceOnUse" spreadMethod="reflect"><stop offset="0" stop-color="#a4a4a4"/><stop offset=".63" stop-color="#7f7f7f"/><stop offset="1" stop-color="#6f6f6f"/></linearGradient><path fill="url(#jnZ4DdbF0X_ZS62Z2iohgc)" d="M55.084,43H17.916C16.305,43,15,41.695,15,40.084V16.916C15,15.305,16.305,14,17.916,14 h37.168C56.695,14,58,15.305,58,16.916v23.168C58,41.695,56.695,43,55.084,43z"/><linearGradient id="jnZ4DdbF0X_ZS62Z2iohgd" x1="36.5" x2="36.5" y1="17" y2="46.484" gradientUnits="userSpaceOnUse" spreadMethod="reflect"><stop offset="0" stop-color="#dff9ff"/><stop offset="0" stop-color="#dff9ff"/><stop offset=".173" stop-color="#d8f8ff"/><stop offset=".423" stop-color="#c5f4ff"/><stop offset=".72" stop-color="#a5eeff"/><stop offset="1" stop-color="#81e7ff"/></linearGradient><path fill="url(#jnZ4DdbF0X_ZS62Z2iohgd)" d="M54.034,40H18.966C18.432,40,18,39.568,18,39.034V17.966C18,17.432,18.432,17,18.966,17 h35.068C54.568,17,55,17.432,55,17.966v21.068C55,39.568,54.568,40,54.034,40z"/><g opacity=".5"><linearGradient id="jnZ4DdbF0X_ZS62Z2iohge" x1="26" x2="26" y1="31" y2="17" gradientUnits="userSpaceOnUse" spreadMethod="reflect"><stop offset="0" stop-color="#ecf9fd"/><stop offset=".848" stop-color="#f2fdff"/><stop offset="1" stop-color="#f4feff"/></linearGradient><path fill="url(#jnZ4DdbF0X_ZS62Z2iohge)" d="M28.5,31c1.381,0,2.5-1.119,2.5-2.5v0c0-1.381-1.119-2.5-2.5-2.5H28c-1.105,0-2-0.895-2-2v0 c0-1.105,0.895-2,2-2h3.5c1.381,0,2.5-1.119,2.5-2.5v0c0-1.381-1.119-2.5-2.5-2.5H19c-0.552,0-1,0.448-1,1v13H28.5z"/></g><linearGradient id="jnZ4DdbF0X_ZS62Z2iohgf" x1="45.5" x2="45.5" y1="39.958" y2="24.958" gradientUnits="userSpaceOnUse" spreadMethod="reflect"><stop offset="0" stop-color="#89e4fa"/><stop offset=".406" stop-color="#94e8fc"/><stop offset="1" stop-color="#acf0ff"/></linearGradient><path fill="url(#jnZ4DdbF0X_ZS62Z2iohgf)" d="M43,27.5L43,27.5c0,1.381,1.119,2.5,2.5,2.5h0c1.381,0,2.5,1.119,2.5,2.5v0 c0,1.381-1.119,2.5-2.5,2.5h-7c-1.381,0-2.5,1.119-2.5,2.5v0c0,1.381,1.119,2.5,2.5,2.5H54c0.552,0,1-0.448,1-1V25h-9.5 C44.119,25,43,26.119,43,27.5z"/><linearGradient id="jnZ4DdbF0X_ZS62Z2iohgg" x1="15" x2="15" y1="26.279" y2="67.894" gradientUnits="userSpaceOnUse" spreadMethod="reflect"><stop offset="0" stop-color="#a4a4a4"/><stop offset=".63" stop-color="#7f7f7f"/><stop offset="1" stop-color="#6f6f6f"/><stop offset="1" stop-color="#6f6f6f"/></linearGradient><path fill="url(#jnZ4DdbF0X_ZS62Z2iohgg)" d="M21.08,50H8.92C7.307,50,6,48.693,6,47.08V23.92C6,22.307,7.307,21,8.92,21h12.16 c1.613,0,2.92,1.307,2.92,2.92v23.16C24,48.693,22.693,50,21.08,50z"/><linearGradient id="jnZ4DdbF0X_ZS62Z2iohgh" x1="15" x2="15" y1="25" y2="58.871" gradientUnits="userSpaceOnUse" spreadMethod="reflect"><stop offset="0" stop-color="#dff9ff"/><stop offset="0" stop-color="#dff9ff"/><stop offset=".173" stop-color="#d8f8ff"/><stop offset=".423" stop-color="#c5f4ff"/><stop offset=".72" stop-color="#a5eeff"/><stop offset="1" stop-color="#81e7ff"/></linearGradient><path fill="url(#jnZ4DdbF0X_ZS62Z2iohgh)" d="M21.006,46H8.994C8.445,46,8,45.555,8,45.006V25.994C8,25.445,8.445,25,8.994,25h12.012 C21.555,25,22,25.445,22,25.994v19.012C22,45.555,21.555,46,21.006,46z"/><path fill="#979797" d="M15 47A1 1 0 1 0 15 49A1 1 0 1 0 15 47Z"/><g><linearGradient id="jnZ4DdbF0X_ZS62Z2iohgi" x1="13" x2="13" y1="39" y2="25" gradientUnits="userSpaceOnUse" spreadMethod="reflect"><stop offset="0" stop-color="#ecf9fd"/><stop offset=".848" stop-color="#f2fdff"/><stop offset="1" stop-color="#f4feff"/></linearGradient><path fill="url(#jnZ4DdbF0X_ZS62Z2iohgi)" d="M13.5,39c1.381,0,2.5-1.119,2.5-2.5v0c0-1.381-1.119-2.5-2.5-2.5H13c-1.105,0-2-0.895-2-2v0 c0-1.105,0.895-2,2-2h2.5c1.381,0,2.5-1.119,2.5-2.5v0c0-1.381-1.119-2.5-2.5-2.5H9c-0.552,0-1,0.448-1,1v13H13.5z"/></g></svg>