<svg xmlns="http://www.w3.org/2000/svg" viewBox="0 0 32 32">
  <path d="M2 6L2 19.6875L0.46875 22.03125L0.46875 22.0625C0.191406 22.484375 0 22.988281 0 23.5C0 24.882813 1.117188 26 2.5 26L30 26C30.523438 26 31.058594 25.816406 31.4375 25.4375C31.816406 25.058594 32 24.523438 32 24L32 14C32 13.476563 31.816406 12.941406 31.4375 12.5625C31.058594 12.183594 30.523438 12 30 12L24 12L24 6 Z M 4 8L22 8L22 12L16 12C15.476563 12 14.941406 12.183594 14.5625 12.5625C14.183594 12.941406 14 13.476563 14 14L14 19L4 19 Z M 16 14L30 14L30 24L16 24 Z M 3.5625 21L14 21L14 24L2.5 24C2.285156 24 2 23.714844 2 23.5C2 23.421875 2.011719 23.328125 2.125 23.15625 Z M 21 21L21 23L25 23L25 21Z" fill="#474545" />
</svg>