<svg xmlns="http://www.w3.org/2000/svg" baseProfile="basic" viewBox="0 0 100 100"><path fill="#60be92" d="M77.874,26.484v46.681c0,3.581-2.903,6.484-6.484,6.484H35.845c-3.581,0-6.484-2.903-6.484-6.484 V25.558c0-6.633,5.401-4.956,12.042-4.956h26.573C74.618,20.602,77.874,19.852,77.874,26.484z"/><path fill="#00a6a6" d="M54.168,79h21.85C76.56,79,77,78.56,77,78.017V63.651c0-0.543-0.44-0.983-0.983-0.983h-21.85 c-0.543,0-0.983,0.44-0.983,0.983v14.367C53.185,78.56,53.625,79,54.168,79z"/><path fill="#70b570" d="M53.617,20.583v14.423H29.36v-9.958c0-5.976,5.401-4.465,12.042-4.465H53.617z"/><rect width="22.198" height="13.668" x="30.987" y="49" fill="#00a6a6"/><rect width="22.815" height="14" x="53.185" y="49" fill="#8cc78c"/><path fill="#00a6a6" d="M32.925,79h20.26V63.532H30v12.543C30,77.69,31.31,79,32.925,79z"/><path fill="#1f212b" d="M53.617,79c-0.276,0-0.5-0.224-0.5-0.5V30.426c0-0.276,0.224-0.5,0.5-0.5s0.5,0.224,0.5,0.5V78.5 C54.117,78.776,53.894,79,53.617,79z"/><path fill="#1f212b" d="M53.617,26.521c-0.276,0-0.5-0.224-0.5-0.5V20c0-0.276,0.224-0.5,0.5-0.5s0.5,0.224,0.5,0.5v6.021 C54.117,26.298,53.894,26.521,53.617,26.521z"/><path fill="#1f212b" d="M73.13,80.05H33.42c-2.597,0-4.71-2.113-4.71-4.71V64.06c0-0.553,0.447-1,1-1s1,0.447,1,1v11.28 c0,1.494,1.216,2.71,2.71,2.71h39.71c1.494,0,2.71-1.216,2.71-2.71V23.82c0-1.494-1.216-2.71-2.71-2.71H33.42 c-1.494,0-2.71,1.216-2.71,2.71V34c0,0.553-0.447,1-1,1s-1-0.447-1-1V23.82c0-2.597,2.113-4.71,4.71-4.71h39.71 c2.597,0,4.71,2.113,4.71,4.71v51.52C77.84,77.937,75.727,80.05,73.13,80.05z"/><path fill="#1f212b" d="M37.5,36h-6c-0.276,0-0.5-0.224-0.5-0.5s0.224-0.5,0.5-0.5h6c0.276,0,0.5,0.224,0.5,0.5 S37.776,36,37.5,36z"/><path fill="#1f212b" d="M76.5,36h-35c-0.276,0-0.5-0.224-0.5-0.5s0.224-0.5,0.5-0.5h35c0.276,0,0.5,0.224,0.5,0.5 S76.776,36,76.5,36z"/><path fill="#1f212b" d="M76.5,50h-34c-0.276,0-0.5-0.224-0.5-0.5s0.224-0.5,0.5-0.5h34c0.276,0,0.5,0.224,0.5,0.5 S76.776,50,76.5,50z"/><path fill="#1f212b" d="M60.315,63.601H31.852c-0.276,0-0.5-0.224-0.5-0.5s0.224-0.5,0.5-0.5h28.464 c0.276,0,0.5,0.224,0.5,0.5S60.592,63.601,60.315,63.601z"/><path fill="#1f212b" d="M76.5,63.601H64.853c-0.276,0-0.5-0.224-0.5-0.5s0.224-0.5,0.5-0.5H76.5 c0.276,0,0.5,0.224,0.5,0.5S76.776,63.601,76.5,63.601z"/><g><path fill="#70b570" d="M38.436,64.065H19.539c-3.073,0-5.564-2.491-5.564-5.564V39.56c0-3.073,2.491-5.564,5.564-5.564 h18.897c3.073,0,5.564,2.491,5.564,5.564V58.5C44,61.574,41.509,64.065,38.436,64.065z"/></g><g><path fill="#1f212b" d="M38.436,64.061H28.5c-0.276,0-0.5-0.224-0.5-0.5s0.224-0.5,0.5-0.5h9.936 c2.793,0,5.064-2.188,5.064-4.878V39.878c0-2.689-2.271-4.878-5.064-4.878H29.5c-0.276,0-0.5-0.224-0.5-0.5s0.224-0.5,0.5-0.5 h8.936c3.344,0,6.064,2.637,6.064,5.878v18.305C44.5,61.424,41.779,64.061,38.436,64.061z"/></g><g><path fill="#1f212b" d="M29.71,65.06H19.54c-3.623,0-6.57-2.942-6.57-6.56V39.56c0-3.617,2.947-6.56,6.57-6.56h10.17 c0.553,0,1,0.447,1,1s-0.447,1-1,1H19.54c-2.521,0-4.57,2.046-4.57,4.56V58.5c0,2.514,2.05,4.56,4.57,4.56h10.17 c0.553,0,1,0.447,1,1S30.263,65.06,29.71,65.06z"/></g><g><polygon fill="#fefdef" points="21.707,39.816 25.804,39.816 28.976,46.316 32.412,39.816 36.641,39.816 31.355,48.805 36.641,57.932 32.544,57.932 28.844,50.603 25.407,57.794 21.046,57.794 26.597,48.667"/><path fill="#1f212b" d="M37,58.163h-4.281c-0.183,0-0.352-0.1-0.439-0.261l-3.415-6.268l-3.158,6.124 c-0.086,0.166-0.257,0.271-0.444,0.271h-4.558c-0.184,0-0.353-0.101-0.44-0.263c-0.087-0.161-0.078-0.358,0.022-0.512l5.629-8.575 l-4.95-8.3c-0.092-0.154-0.094-0.347-0.005-0.503s0.255-0.253,0.435-0.253h4.281c0.186,0,0.355,0.103,0.442,0.267l2.89,5.486 l3.139-5.501c0.089-0.155,0.255-0.252,0.435-0.252H37c0.183,0,0.351,0.1,0.438,0.259c0.088,0.16,0.081,0.355-0.017,0.509 l-5.355,8.437l5.357,8.57c0.097,0.153,0.102,0.348,0.014,0.507S37.182,58.163,37,58.163z M33.016,57.163h3.082l-5.046-8.072 c-0.103-0.163-0.102-0.37,0.002-0.532l5.037-7.935h-3.22l-3.446,6.041c-0.092,0.159-0.242,0.281-0.443,0.252 c-0.183-0.003-0.349-0.105-0.434-0.267l-3.174-6.026h-3.099l4.659,7.812c0.098,0.164,0.094,0.37-0.012,0.53l-5.292,8.062h3.326 l3.451-6.691c0.085-0.164,0.254-0.269,0.438-0.271c0.002,0,0.004,0,0.006,0c0.183,0,0.352,0.1,0.439,0.261L33.016,57.163z"/></g></svg>