<svg xmlns="http://www.w3.org/2000/svg" viewBox="0 0 50 50">
  <path d="M25 4C12.328125 4 2 12.878906 2 23.996094C2 30.445313 5.53125 36.0625 10.960938 39.730469C10.953125 39.945313 10.96875 40.296875 10.6875 41.34375C10.335938 42.644531 9.625 44.472656 8.1875 46.535156L7.164063 48L8.953125 48C15.140625 48 18.722656 43.964844 19.277344 43.316406C21.121094 43.75 23.015625 43.984375 25 43.984375C37.667969 43.984375 48 35.105469 48 23.992188C48 12.878906 37.671875 4 25 4 Z M 24.921875 13C25.335938 13 25.707031 13.253906 25.855469 13.640625L28.128906 19.535156L34.4375 19.875C34.851563 19.898438 35.210938 20.171875 35.339844 20.566406C35.464844 20.957031 35.339844 21.390625 35.015625 21.652344L30.109375 25.636719L31.738281 31.738281C31.84375 32.140625 31.695313 32.566406 31.359375 32.808594C31.023438 33.050781 30.574219 33.0625 30.230469 32.839844L24.921875 29.402344L19.617188 32.839844C19.453125 32.945313 19.261719 33 19.074219 33C18.867188 33 18.660156 32.9375 18.484375 32.808594C18.152344 32.566406 18 32.140625 18.109375 31.742188L19.734375 25.636719L14.828125 21.652344C14.507813 21.390625 14.378906 20.960938 14.507813 20.566406C14.636719 20.175781 14.992188 19.902344 15.40625 19.878906L21.71875 19.535156L23.988281 13.640625C24.136719 13.253906 24.511719 13 24.921875 13 Z M 24.921875 16.78125L23.347656 20.859375C23.207031 21.226563 22.863281 21.476563 22.46875 21.5L18.105469 21.734375L21.5 24.488281C21.804688 24.738281 21.9375 25.144531 21.835938 25.527344L20.710938 29.75L24.378906 27.375C24.546875 27.265625 24.734375 27.214844 24.921875 27.214844C25.113281 27.214844 25.300781 27.265625 25.46875 27.375L29.140625 29.75L28.015625 25.527344C27.910156 25.144531 28.042969 24.738281 28.347656 24.488281L31.746094 21.734375L27.375 21.5C26.980469 21.476563 26.636719 21.226563 26.496094 20.859375Z" fill="#FFFFFF" />
</svg>