<svg xmlns="http://www.w3.org/2000/svg" viewBox="0 0 30 30">
  <path d="M6 4C4.91 4 4 4.91 4 6L4 24C4 25.09 4.91 26 6 26L14.519531 26C14.289531 25.36 14.130547 24.69 14.060547 24L6 24L6 10L24 10L24 14.060547C24.69 14.130547 25.36 14.289531 26 14.519531L26 6C26 4.91 25.09 4 24 4L6 4 z M 6 6L8 6L8 8L6 8L6 6 z M 10 6L12 6L12 8L10 8L10 6 z M 14 6L16 6L16 8L14 8L14 6 z M 18 6L20 6L20 8L18 8L18 6 z M 22 6L24 6L24 8L22 8L22 6 z M 9 12C8.45 11.99 7.9902344 12.430234 7.9902344 12.990234C7.9802344 13.540234 8.4207031 13.99 8.9707031 14L13 14C13.55 14.01 14.009766 13.569766 14.009766 13.009766C14.019766 12.459766 13.579297 12.01 13.029297 12L9 12 z M 12 16C11.45 15.99 10.990234 16.430234 10.990234 16.990234C10.980234 17.540234 11.420703 17.99 11.970703 18L15.519531 18C16.029531 17.24 16.649375 16.56 17.359375 16L12 16 z M 23 16C22.5 16 22.009062 16.050391 21.539062 16.150391C20.219062 16.430391 19.039375 17.08 18.109375 18C17.469375 18.62 16.949844 19.359453 16.589844 20.189453C16.339844 20.749453 16.160078 21.360234 16.080078 21.990234C16.020078 22.320234 16 22.66 16 23C16 23.34 16.020078 23.68 16.080078 24C16.170078 24.71 16.379687 25.38 16.679688 26C17.799688 28.37 20.2 30 23 30C26.87 30 30 26.87 30 23C30 20.2 28.37 17.799687 26 16.679688C25.38 16.379687 24.71 16.170078 24 16.080078C23.68 16.020078 23.34 16 23 16 z M 9 20C8.45 19.99 7.9902344 20.430234 7.9902344 20.990234C7.9802344 21.540234 8.4207031 21.99 8.9707031 22L14.060547 22C14.130547 21.31 14.289531 20.64 14.519531 20L9 20 z M 23 20C23.55 20 24 20.45 24 21L24 25C24 25.55 23.55 26 23 26C22.45 26 22 25.55 22 25L22 24L22 21C22 20.45 22.45 20 23 20 z" fill="#FFFFFF" />
</svg>