<svg xmlns="http://www.w3.org/2000/svg" viewBox="0 0 24 24">
  <path d="M17.5,4H15V3.245c0-0.866-1.026-1.323-1.669-0.743l-2.505,2.255c-0.441,0.397-0.441,1.089,0,1.486l2.505,2.255C13.974,9.077,15,8.621,15,7.755V7h2.5C17.776,7,18,7.224,18,7.5v10c0,0.828,0.672,1.5,1.5,1.5h0c0.828,0,1.5-0.672,1.5-1.5v-10C21,5.567,19.433,4,17.5,4z" opacity=".35" fill="#FFFFFF" />
  <circle cx="19.5" cy="18.5" r="3.5" fill="#FFFFFF" />
  <circle cx="4.5" cy="5.5" r="3.5" fill="#FFFFFF" />
  <circle cx="4.5" cy="18.5" r="3.5" fill="#FFFFFF" />
  <rect width="3" height="12" x="3" y="7" opacity=".35" fill="#FFFFFF" />
</svg>