<svg xmlns="http://www.w3.org/2000/svg" viewBox="0 0 26 26">
  <path d="M25.898438 10C25.800781 9.601563 25.398438 9.300781 25.101563 9.300781L17.398438 8.199219L14 1.199219C13.601563 0.5 12.5 0.5 12.101563 1.199219L8.699219 8.199219L0.898438 9.300781C0.5 9.300781 0.199219 9.601563 0.101563 10C0 10.398438 0.101563 10.800781 0.398438 11.101563L6 16.5L4.699219 24.199219C4.601563 24.601563 4.800781 25 5.101563 25.199219C5.398438 25.398438 5.898438 25.5 6.199219 25.300781L13.101563 21.699219L20 25.300781C20.199219 25.398438 20.300781 25.398438 20.5 25.398438C20.699219 25.398438 20.898438 25.300781 21.101563 25.199219C21.398438 25 21.601563 24.601563 21.5 24.199219L20.199219 16.5L25.800781 11.101563C26 10.800781 26.101563 10.300781 25.898438 10 Z M 17 15L14 15L14 18L12 18L12 15L9 15L9 13L12 13L12 10L14 10L14 13L17 13Z" fill="#FFFFFF" />
</svg>