<svg xmlns="http://www.w3.org/2000/svg" viewBox="0 0 26 26">
  <path d="M1 2C0.398438 2 0 2.398438 0 3L0 5C0 5.601563 0.398438 6 1 6L3 6C3.601563 6 4 5.601563 4 5L4 3C4 2.398438 3.601563 2 3 2 Z M 6.8125 3C6.261719 3.050781 5.855469 3.542969 5.90625 4.09375C5.957031 4.644531 6.449219 5.050781 7 5L24 5C24.359375 5.003906 24.695313 4.816406 24.878906 4.503906C25.058594 4.191406 25.058594 3.808594 24.878906 3.496094C24.695313 3.183594 24.359375 2.996094 24 3L7 3C6.96875 3 6.9375 3 6.90625 3C6.875 3 6.84375 3 6.8125 3 Z M 1 8C0.398438 8 0 8.398438 0 9L0 11C0 11.601563 0.398438 12 1 12L3 12C3.601563 12 4 11.601563 4 11L4 9C4 8.398438 3.601563 8 3 8 Z M 6.8125 9C6.261719 9.050781 5.855469 9.542969 5.90625 10.09375C5.957031 10.644531 6.449219 11.050781 7 11L24 11C24.359375 11.003906 24.695313 10.816406 24.878906 10.503906C25.058594 10.191406 25.058594 9.808594 24.878906 9.496094C24.695313 9.183594 24.359375 8.996094 24 9L7 9C6.96875 9 6.9375 9 6.90625 9C6.875 9 6.84375 9 6.8125 9 Z M 1 14C0.398438 14 0 14.398438 0 15L0 17C0 17.601563 0.398438 18 1 18L3 18C3.601563 18 4 17.601563 4 17L4 15C4 14.398438 3.601563 14 3 14 Z M 6.8125 15C6.261719 15.050781 5.855469 15.542969 5.90625 16.09375C5.957031 16.644531 6.449219 17.050781 7 17L24 17C24.359375 17.003906 24.695313 16.816406 24.878906 16.503906C25.058594 16.191406 25.058594 15.808594 24.878906 15.496094C24.695313 15.183594 24.359375 14.996094 24 15L7 15C6.96875 15 6.9375 15 6.90625 15C6.875 15 6.84375 15 6.8125 15 Z M 1 20C0.398438 20 0 20.398438 0 21L0 23C0 23.601563 0.398438 24 1 24L3 24C3.601563 24 4 23.601563 4 23L4 21C4 20.398438 3.601563 20 3 20 Z M 6.8125 21C6.261719 21.050781 5.855469 21.542969 5.90625 22.09375C5.957031 22.644531 6.449219 23.050781 7 23L24 23C24.359375 23.003906 24.695313 22.816406 24.878906 22.503906C25.058594 22.191406 25.058594 21.808594 24.878906 21.496094C24.695313 21.183594 24.359375 20.996094 24 21L7 21C6.96875 21 6.9375 21 6.90625 21C6.875 21 6.84375 21 6.8125 21Z" fill="#777777" />
</svg>