<svg xmlns="http://www.w3.org/2000/svg" viewBox="0 0 100 100"><path fill="#f1bc19" d="M78 13A1 1 0 1 0 78 15A1 1 0 1 0 78 13Z"/><path fill="#f9dbd2" d="M50 12A38 38 0 1 0 50 88A38 38 0 1 0 50 12Z"/><path fill="#f1bc19" d="M84 12A4 4 0 1 0 84 20A4 4 0 1 0 84 12Z"/><path fill="#ee3e54" d="M14 24A2 2 0 1 0 14 28A2 2 0 1 0 14 24Z"/><path fill="#fbcd59" d="M78 75A2 2 0 1 0 78 79 2 2 0 1 0 78 75zM17 74A4 4 0 1 0 17 82 4 4 0 1 0 17 74z"/><path fill="#ee3e54" d="M24 81A2 2 0 1 0 24 85A2 2 0 1 0 24 81Z"/><path fill="#fff" d="M66.483 76.03399999999999A2.483 2.483 0 1 0 66.483 81 2.483 2.483 0 1 0 66.483 76.03399999999999zM16 47A1 1 0 1 0 16 49 1 1 0 1 0 16 47z"/><path fill="#f1bc19" d="M86 30A1 1 0 1 0 86 32A1 1 0 1 0 86 30Z"/><path fill="#fff" d="M80 64A2 2 0 1 0 80 68A2 2 0 1 0 80 64Z"/><g><path fill="#a1d3a2" d="M50,74.075c-13.275,0-24.075-10.8-24.075-24.075S36.725,25.925,50,25.925 c6.572,0,12.779,2.654,17.3,7.341V27.5c0-1.213,0.987-2.2,2.2-2.2s2.2,0.987,2.2,2.2v11c0,1.213-0.987,2.2-2.2,2.2h-11 c-1.213,0-2.2-0.987-2.2-2.2s0.987-2.2,2.2-2.2h5.614C60.42,32.485,55.357,30.325,50,30.325 c-10.849,0-19.675,8.826-19.675,19.675S39.151,69.675,50,69.675S69.675,60.849,69.675,50c0-0.628-0.029-1.263-0.089-1.888 c-0.055-0.584,0.12-1.155,0.495-1.608c0.374-0.453,0.902-0.733,1.487-0.789c0.069-0.007,0.145-0.011,0.219-0.011 c1.116,0,2.073,0.876,2.18,1.993c0.071,0.755,0.108,1.529,0.108,2.303C74.075,63.275,63.275,74.075,50,74.075z"/><path fill="#472b29" d="M69.5,26c0.828,0,1.5,0.672,1.5,1.5v11c0,0.828-0.672,1.5-1.5,1.5h-11c-0.828,0-1.5-0.672-1.5-1.5 s0.672-1.5,1.5-1.5h7.18c-3.891-4.695-9.557-7.375-15.68-7.375c-11.234,0-20.375,9.141-20.375,20.375S38.766,70.375,50,70.375 S70.375,61.234,70.375,50c0-0.653-0.031-1.311-0.092-1.953c-0.078-0.824,0.526-1.557,1.352-1.635 c0.051-0.005,0.102-0.008,0.153-0.008c0.753,0,1.409,0.586,1.482,1.359c0.07,0.736,0.105,1.489,0.105,2.236 c0,12.889-10.486,23.375-23.375,23.375S26.625,62.889,26.625,50S37.111,26.625,50,26.625c7.033,0,13.54,3.081,18,8.475v-7.6 C68,26.672,68.672,26,69.5,26 M69.5,24.6c-1.599,0-2.9,1.301-2.9,2.9v4.113c-4.521-4.095-10.403-6.388-16.6-6.388 c-13.661,0-24.775,11.114-24.775,24.775S36.339,74.775,50,74.775S74.775,63.661,74.775,50c0-0.795-0.038-1.592-0.112-2.37 c-0.139-1.472-1.403-2.626-2.876-2.626c-0.099,0-0.199,0.005-0.3,0.016c-0.756,0.071-1.453,0.44-1.947,1.038 c-0.493,0.597-0.725,1.35-0.652,2.121c0.057,0.602,0.086,1.215,0.086,1.821c0,10.463-8.512,18.975-18.975,18.975 S31.025,60.463,31.025,50S39.537,31.025,50,31.025c4.581,0,8.939,1.638,12.352,4.575H58.5c-1.599,0-2.9,1.301-2.9,2.9 s1.301,2.9,2.9,2.9h11c1.599,0,2.9-1.301,2.9-2.9v-11C72.4,25.901,71.099,24.6,69.5,24.6L69.5,24.6z"/><path fill="#472b29" d="M60.397 63.313c-.146 0-.289-.063-.388-.185-.175-.214-.142-.529.072-.703.917-.746 1.752-1.593 2.482-2.518.172-.216.486-.253.702-.083.217.171.254.485.083.702-.776.983-1.663 1.883-2.637 2.674C60.62 63.275 60.509 63.313 60.397 63.313zM64.395 58.571c-.083 0-.167-.021-.245-.064-.24-.135-.326-.439-.19-.681C65.294 55.449 66 52.743 66 50c0-.276.224-.5.5-.5S67 49.724 67 50c0 2.914-.75 5.79-2.17 8.316C64.738 58.479 64.569 58.571 64.395 58.571zM33.896 46.894c-.035 0-.072-.004-.108-.012-.27-.061-.439-.327-.38-.597C35.123 38.587 42.102 33 50 33c1.31 0 2.615.149 3.879.444.27.063.437.332.374.601-.063.27-.329.437-.601.374C52.462 34.141 51.233 34 50 34c-7.434 0-14.002 5.258-15.616 12.502C34.332 46.735 34.125 46.894 33.896 46.894zM36.466 59.94c-.157 0-.313-.074-.41-.214C34.057 56.866 33 53.502 33 50c0-.276.224-.5.5-.5S34 49.724 34 50c0 3.297.994 6.462 2.876 9.154.158.227.103.538-.124.696C36.665 59.911 36.565 59.94 36.466 59.94z"/><g><path fill="#472b29" d="M50,67c-4.336,0-8.465-1.633-11.627-4.599c-0.201-0.188-0.212-0.505-0.022-0.706 c0.188-0.203,0.506-0.212,0.706-0.022C42.032,64.463,45.919,66,50,66c2.704,0,5.378-0.688,7.73-1.987 c0.243-0.134,0.547-0.047,0.68,0.195c0.134,0.242,0.046,0.546-0.195,0.68C55.714,66.27,52.873,67,50,67z"/></g></g></svg>