<?xml version="1.0" standalone="no"?>
<!DOCTYPE svg PUBLIC "-//W3C//DTD SVG 20010904//EN"
 "http://www.w3.org/TR/2001/REC-SVG-20010904/DTD/svg10.dtd">
<svg version="1.0" xmlns="http://www.w3.org/2000/svg"
 width="3600.000000pt" height="3600.000000pt" viewBox="0 0 3600.000000 3600.000000"
 preserveAspectRatio="xMidYMid meet">
<metadata>
Created by potrace 1.10, written by Peter Selinger 2001-2011
</metadata>
<g transform="translate(0.000000,3600.000000) scale(0.100000,-0.100000)"
fill="#245d7b" stroke="none">
<path d="M3912 35203 c-10 -4 -12 -218 -12 -1066 1 -851 -2 -1063 -12 -1073
-7 -7 -34 -24 -60 -37 -26 -14 -59 -33 -75 -43 -15 -11 -37 -24 -48 -31 -11
-7 -40 -24 -65 -39 -25 -15 -51 -34 -58 -41 -7 -7 -18 -13 -23 -13 -5 0 -35
-19 -68 -42 -32 -24 -68 -50 -81 -58 -13 -8 -48 -33 -79 -56 -31 -22 -63 -44
-72 -50 -9 -5 -36 -26 -60 -46 -24 -21 -73 -61 -109 -90 -36 -29 -78 -65 -95
-81 -16 -15 -49 -42 -72 -60 -75 -57 -435 -429 -546 -562 -59 -71 -113 -137
-121 -145 -14 -15 -149 -200 -176 -240 -8 -12 -36 -52 -62 -89 -27 -36 -48
-71 -48 -78 0 -7 -3 -13 -7 -13 -5 0 -20 -21 -36 -48 -15 -26 -32 -54 -37 -62
-43 -68 -100 -170 -100 -179 0 -6 -4 -11 -8 -11 -4 0 -15 -15 -23 -32 -9 -18
-46 -94 -83 -168 -37 -74 -74 -148 -81 -165 -8 -16 -28 -60 -44 -96 -17 -36
-31 -70 -31 -76 0 -6 -6 -24 -14 -40 -8 -15 -22 -46 -31 -68 -9 -22 -20 -47
-24 -55 -5 -9 -12 -31 -16 -50 -4 -19 -11 -39 -14 -45 -4 -5 -18 -41 -30 -80
-12 -38 -26 -79 -31 -90 -5 -11 -14 -38 -19 -60 -23 -97 -33 -131 -41 -146 -5
-9 -11 -37 -15 -63 -4 -25 -11 -48 -15 -51 -5 -3 -11 -29 -15 -58 -3 -28 -10
-61 -15 -72 -5 -11 -14 -47 -20 -80 -6 -33 -18 -96 -26 -140 -28 -151 -50
-321 -74 -581 -13 -142 -13 -718 0 -837 36 -322 54 -468 62 -487 4 -8 11 -46
17 -85 6 -38 18 -101 26 -140 9 -38 20 -91 25 -118 5 -26 13 -62 19 -80 29
-90 51 -172 51 -188 0 -10 4 -20 9 -23 5 -3 12 -26 15 -51 4 -24 11 -47 16
-50 4 -3 11 -23 15 -45 4 -22 11 -42 16 -46 5 -3 9 -13 9 -22 0 -9 7 -30 15
-45 8 -15 17 -43 21 -62 3 -19 10 -35 15 -35 5 0 9 -8 9 -17 1 -10 9 -36 20
-58 11 -22 19 -46 20 -53 0 -7 4 -20 10 -30 5 -9 17 -35 26 -57 70 -168 245
-516 291 -582 11 -15 24 -38 27 -50 4 -13 11 -23 16 -23 5 0 12 -10 16 -22 4
-13 19 -41 34 -63 31 -46 118 -176 140 -211 22 -34 73 -107 85 -121 6 -6 21
-26 35 -44 14 -19 55 -72 92 -119 37 -47 73 -92 80 -101 7 -9 45 -52 83 -95
39 -43 88 -99 110 -124 55 -63 229 -238 295 -295 72 -63 187 -164 218 -192 14
-13 28 -23 31 -23 3 0 22 -14 41 -32 49 -44 318 -242 404 -298 20 -13 179
-112 226 -140 67 -41 158 -92 225 -125 44 -22 82 -43 83 -47 2 -5 8 -8 14 -8
6 0 52 -20 102 -44 50 -24 114 -54 141 -66 28 -11 59 -25 70 -30 88 -39 116
-50 129 -50 8 0 17 -4 21 -9 3 -5 19 -12 36 -16 17 -4 42 -13 57 -21 15 -8 34
-14 42 -14 9 0 20 -4 25 -8 6 -4 44 -18 85 -31 41 -13 82 -27 90 -31 9 -4 31
-11 50 -15 19 -4 40 -11 45 -15 6 -4 30 -11 55 -15 24 -4 51 -11 60 -16 15 -8
72 -22 170 -41 30 -6 60 -14 65 -18 6 -4 39 -11 75 -15 35 -4 71 -11 80 -16 8
-4 51 -13 95 -19 44 -7 125 -18 180 -26 187 -28 414 -35 908 -30 269 3 494 9
500 13 7 4 57 13 112 20 135 16 393 62 425 75 8 4 40 11 70 17 84 15 154 32
165 41 6 4 29 10 53 14 24 3 51 10 60 15 9 5 51 19 92 31 41 12 82 25 90 29 9
5 30 12 49 16 18 4 44 13 59 21 15 8 35 14 44 14 9 0 20 5 23 10 3 6 14 10 23
10 9 0 30 7 46 15 15 8 33 15 39 15 5 0 31 10 56 21 25 12 69 32 96 45 28 13
62 26 78 30 15 3 27 10 27 15 0 5 6 9 13 9 13 0 225 106 327 164 36 20 77 41
93 47 15 6 27 15 27 20 0 5 6 9 13 9 7 0 47 23 89 50 42 28 80 50 85 50 4 0
19 10 33 23 14 13 45 36 70 50 56 34 202 137 234 164 13 11 30 24 38 29 17 10
80 60 138 109 19 17 56 47 81 67 140 112 504 475 630 629 20 24 61 73 91 109
30 36 63 79 74 95 10 17 31 44 46 60 15 17 28 35 28 40 0 6 14 26 30 45 42 50
43 51 70 95 13 22 27 42 30 45 3 3 24 34 45 70 22 36 45 71 52 78 7 7 13 18
13 23 0 6 11 25 24 42 14 18 29 43 35 57 6 14 15 32 21 40 51 79 171 311 230
445 13 28 33 72 46 99 13 28 24 54 24 58 0 10 34 92 50 120 6 10 10 23 10 30
1 7 9 31 20 53 11 22 19 48 20 57 0 9 4 19 9 22 5 4 12 24 16 46 4 22 10 42
15 45 5 3 11 23 15 45 4 22 10 42 15 45 5 3 11 24 15 47 4 23 11 49 16 58 4 8
13 35 19 60 6 25 18 70 26 100 30 110 68 286 85 395 6 39 13 77 17 85 3 8 11
65 18 125 7 61 17 148 23 195 30 254 31 420 31 3903 l0 3547 -2515 0 -2514 0
-43 -22 c-87 -45 -211 -189 -266 -308 -37 -83 -52 -121 -52 -135 0 -38 -39 -4
-101 90 -37 55 -100 132 -140 171 -71 68 -220 174 -245 174 -6 0 -25 7 -40 15
-25 13 -163 15 -1054 14 -564 0 -1031 -3 -1038 -6z m1883 -185 c17 -10 39 -18
51 -18 22 0 127 -52 155 -76 8 -8 20 -14 25 -14 5 0 43 -31 85 -70 72 -65 179
-205 179 -233 0 -7 7 -22 15 -33 8 -10 15 -25 15 -32 0 -13 32 -91 50 -124 6
-10 10 -23 10 -30 0 -7 6 -24 13 -38 7 -14 23 -53 36 -87 l23 -63 79 0 c77 0
80 1 90 27 10 27 45 150 60 213 5 19 15 62 23 95 29 121 61 201 123 309 31 54
152 156 185 156 7 0 27 8 43 18 28 16 162 17 2300 20 1249 1 2280 0 2292 -3
l23 -5 4 -3218 c2 -1769 5 -3226 6 -3237 3 -43 -19 -735 -24 -744 -4 -5 -13
-69 -21 -143 -24 -209 -68 -446 -111 -608 -8 -30 -19 -71 -24 -90 -29 -110
-97 -331 -120 -385 -4 -11 -18 -49 -31 -85 -13 -36 -29 -76 -36 -90 -7 -14
-13 -31 -13 -38 0 -7 -4 -20 -10 -30 -5 -9 -19 -39 -31 -67 -50 -119 -164
-351 -210 -430 -16 -27 -33 -59 -38 -70 -42 -99 -352 -556 -482 -709 -9 -12
-43 -52 -76 -91 -170 -202 -458 -487 -658 -652 -211 -173 -542 -401 -735 -506
-30 -16 -84 -46 -120 -65 -134 -73 -319 -160 -460 -217 -25 -10 -63 -26 -85
-36 -22 -9 -62 -24 -90 -33 -27 -9 -59 -21 -70 -26 -56 -25 -287 -95 -450
-136 -459 -115 -778 -153 -1270 -153 -459 0 -739 30 -1150 123 -38 9 -96 21
-127 28 -31 8 -60 17 -64 21 -4 4 -15 7 -25 7 -10 0 -38 6 -61 14 -24 7 -77
24 -118 36 -41 12 -84 26 -95 30 -11 5 -49 18 -85 30 -36 12 -74 26 -85 31
-11 5 -45 18 -75 29 -30 11 -64 25 -75 30 -11 5 -36 15 -55 24 -19 8 -57 24
-85 36 -126 54 -397 196 -546 285 -90 54 -166 101 -169 105 -3 3 -23 17 -45
30 -34 21 -179 122 -210 148 -5 4 -28 21 -50 37 -64 48 -246 196 -294 240 -70
63 -202 187 -230 216 -148 151 -277 292 -348 382 -32 40 -68 83 -80 97 -13 14
-23 28 -23 31 0 3 -11 19 -25 35 -14 16 -38 47 -53 69 -31 46 -108 155 -120
170 -4 6 -19 28 -32 50 -13 22 -28 42 -32 43 -4 2 -8 9 -8 16 0 7 -13 30 -29
52 -25 34 -77 123 -159 274 -55 101 -149 295 -192 395 -5 11 -15 36 -24 55 -8
19 -24 60 -36 90 -11 30 -24 64 -29 75 -5 11 -19 49 -31 85 -12 36 -25 72 -30
80 -4 9 -11 31 -15 50 -4 19 -11 40 -15 45 -4 6 -12 30 -19 55 -7 25 -18 68
-26 95 -49 180 -62 233 -90 370 -36 172 -68 389 -87 590 -14 148 -14 761 0
910 14 151 40 354 46 363 3 5 10 42 16 83 14 104 50 278 75 364 8 28 21 77 30
110 27 101 47 169 62 202 7 17 13 40 13 50 0 10 4 23 8 28 5 6 19 42 31 80 12
39 28 84 36 100 7 17 21 50 30 75 17 43 25 63 58 140 43 101 206 424 258 511
32 55 59 102 59 105 0 2 13 23 29 46 16 24 61 92 101 152 82 125 112 169 121
176 3 3 23 30 44 60 21 30 41 57 45 60 4 3 25 28 45 55 137 181 417 476 605
638 58 50 113 99 122 108 9 9 45 39 80 65 35 27 72 56 82 66 11 10 38 30 60
45 22 16 50 36 61 45 31 26 111 81 204 140 46 29 95 61 110 70 47 32 70 41 85
35 14 -6 16 -127 16 -1203 l0 -1196 -52 -67 c-29 -36 -56 -70 -61 -76 -4 -5
-30 -41 -57 -80 -28 -38 -53 -75 -57 -80 -123 -164 -328 -546 -398 -740 -10
-27 -22 -54 -25 -60 -4 -5 -24 -64 -45 -130 -20 -66 -41 -131 -46 -145 -5 -14
-14 -47 -20 -75 -6 -27 -17 -81 -26 -120 -17 -82 -38 -215 -53 -335 -12 -107
-13 -578 0 -685 21 -180 50 -348 83 -480 8 -33 20 -80 27 -105 12 -51 96 -304
110 -335 5 -11 19 -45 30 -75 32 -85 146 -323 213 -445 52 -93 187 -289 283
-410 99 -125 366 -395 464 -470 36 -27 66 -53 68 -57 2 -4 20 -17 40 -30 33
-20 139 -94 167 -116 9 -7 215 -130 260 -154 43 -24 205 -104 246 -122 24 -10
58 -24 74 -32 17 -7 46 -20 67 -28 20 -9 43 -16 51 -16 9 0 18 -4 21 -9 3 -5
22 -12 43 -16 20 -4 46 -13 57 -21 11 -8 32 -14 46 -14 14 0 30 -4 35 -9 6 -5
33 -14 60 -21 103 -24 150 -37 165 -43 8 -4 44 -11 80 -17 36 -5 88 -13 115
-19 65 -13 198 -30 255 -33 l45 -3 3 1215 c1 668 0 1225 -3 1237 -3 12 -15 25
-27 29 -11 3 -54 26 -93 50 -40 24 -75 44 -78 44 -4 0 -40 20 -80 45 -41 25
-77 45 -80 45 -4 0 -40 20 -80 45 -41 25 -77 45 -80 45 -4 0 -40 20 -80 45
-41 25 -77 45 -80 45 -4 0 -40 20 -80 45 -41 25 -77 45 -80 45 -4 0 -40 20
-80 45 -41 25 -77 45 -80 45 -4 0 -47 25 -97 55 -50 30 -93 55 -96 55 -5 0
-61 32 -241 136 -50 30 -94 54 -97 54 -3 0 -39 20 -79 45 -41 25 -77 45 -81
45 -3 0 -36 18 -72 41 -37 22 -77 45 -88 49 -12 5 -57 31 -101 57 l-80 49 -3
3364 c-2 2684 0 3365 10 3372 7 4 375 7 818 6 745 -3 807 -4 835 -20z"/>
<path d="M9740 34498 c36 -5 73 -13 82 -18 9 -5 35 -12 56 -16 29 -4 43 -13
51 -30 7 -15 19 -24 34 -24 12 0 32 -7 44 -15 12 -8 39 -19 60 -23 l38 -8 -1
-52 c-1 -40 -8 -61 -28 -87 -15 -19 -33 -35 -41 -35 -8 0 -24 -19 -36 -42 -12
-24 -29 -48 -38 -55 -14 -10 -14 -12 4 -18 56 -19 104 -47 145 -82 66 -58 210
-163 223 -163 7 0 24 7 39 14 18 9 65 16 130 17 101 2 129 -4 160 -34 7 -7 31
-24 53 -37 56 -34 70 -54 107 -150 l9 -24 36 38 c31 32 40 37 66 32 16 -3 35
-12 41 -19 20 -25 136 -108 136 -98 0 5 -14 40 -31 77 -127 274 -387 541 -665
682 -51 27 -84 41 -179 81 -122 52 -376 102 -498 100 l-62 -2 65 -9z"/>
<path d="M9130 34408 c-70 -31 -109 -48 -113 -48 -7 0 -171 -92 -177 -99 -3
-4 -32 -24 -64 -46 -60 -41 -236 -207 -295 -280 -78 -95 -195 -290 -185 -307
7 -11 1461 -10 1468 0 5 9 -47 54 -104 89 -41 26 -105 29 -165 8 -22 -8 -47
-15 -55 -15 -8 0 -27 -7 -43 -15 -24 -12 -31 -12 -60 2 -17 9 -45 23 -62 31
-16 8 -52 32 -80 52 -27 21 -60 41 -72 45 -26 7 -30 32 -8 61 21 27 19 34 -10
34 -38 0 -51 37 -39 110 8 46 7 65 -4 86 -10 19 -11 29 -3 37 19 19 12 37 -13
37 -55 0 -56 58 -3 109 18 17 59 51 91 76 58 44 56 59 -4 33z"/>
<path d="M6540 33103 c0 -346 3 -372 50 -448 55 -90 187 -140 342 -132 175 9
266 57 326 172 l26 50 4 334 c3 272 2 335 -9 342 -8 5 -48 9 -90 9 -61 0 -78
-3 -83 -16 -3 -9 -6 -152 -6 -319 0 -337 -2 -351 -63 -392 -42 -28 -124 -38
-186 -23 -61 14 -106 59 -121 120 -7 27 -14 160 -16 325 -2 154 -6 286 -9 293
-3 8 -30 12 -85 12 l-80 0 0 -327z"/>
<path d="M7505 33420 c-4 -7 -9 -767 -5 -868 0 -10 20 -12 83 -10 l82 3 3 283
c2 293 5 308 43 264 8 -10 53 -80 100 -156 46 -76 91 -149 99 -162 8 -12 42
-67 74 -121 33 -54 64 -101 70 -106 6 -4 49 -6 96 -5 l85 3 0 440 0 440 -60 3
c-32 2 -69 1 -82 -3 l-23 -5 -2 -278 c-3 -327 -5 -330 -83 -196 -27 48 -54 92
-60 98 -5 7 -17 24 -25 38 -42 73 -157 259 -187 301 l-35 47 -83 0 c-46 0 -87
-4 -90 -10z"/>
<path d="M8458 32994 c-2 -240 0 -440 3 -445 3 -5 143 -8 335 -7 l329 3 0 70
0 70 -230 3 c-126 1 -233 6 -236 10 -4 4 -9 57 -11 117 l-3 110 215 5 215 5 0
65 0 65 -210 5 -210 5 -6 85 c-3 49 -2 90 4 98 7 9 66 12 232 12 250 0 235 -5
235 76 0 89 22 84 -340 84 l-320 0 -2 -436z"/>
<path d="M9234 33417 c-3 -8 -4 -43 -2 -78 l3 -64 130 -5 130 -5 5 -360 5
-360 85 0 85 0 3 357 2 358 23 5 c12 3 72 6 132 8 l110 2 0 75 0 75 -353 3
c-291 2 -353 0 -358 -11z"/>
<path d="M10105 33418 c-3 -7 -4 -206 -3 -443 l3 -430 85 0 85 0 3 420 c1 231
0 430 -3 443 -5 21 -11 22 -86 22 -54 0 -81 -4 -84 -12z"/>
<path d="M11174 33294 c-4 -26 -4 -112 0 -193 6 -114 4 -166 -9 -240 -9 -51
-20 -101 -25 -110 -5 -9 -16 -43 -25 -76 -43 -157 -58 -191 -114 -265 -88
-116 -95 -136 -86 -249 3 -52 9 -99 11 -103 18 -29 56 22 145 202 29 58 58
117 66 132 7 14 13 35 13 46 0 12 4 23 9 27 5 3 13 20 16 38 4 17 13 52 20 77
31 108 45 228 44 385 0 88 -4 180 -9 205 -27 144 -33 170 -40 170 -5 0 -12
-21 -16 -46z"/>
<path d="M10512 32728 c-11 -15 -52 -103 -52 -114 0 -16 -93 -143 -133 -182
l-44 -43 -661 0 c-364 0 -664 -4 -666 -8 -6 -9 47 -51 64 -51 5 0 10 -9 10
-20 0 -25 -41 -27 -85 -4 -73 39 -109 35 -86 -9 6 -12 20 -47 31 -77 17 -45
43 -77 142 -177 l121 -121 -6 -94 c-4 -51 -3 -98 1 -103 4 -6 36 -30 71 -53
38 -25 75 -60 91 -86 15 -24 38 -50 50 -59 16 -11 21 -23 18 -49 l-3 -33 90
-8 c50 -4 110 -11 135 -15 85 -13 477 32 504 59 6 5 21 9 34 9 13 0 44 9 70
21 26 11 58 25 72 31 80 33 124 54 195 92 11 6 36 23 56 39 20 15 40 27 44 27
12 0 175 131 175 141 0 13 -15 11 -54 -5 -38 -16 -184 -25 -204 -12 -10 6 -8
15 8 40 19 32 27 76 13 76 -3 0 -28 -22 -54 -50 -26 -27 -53 -50 -61 -50 -18
0 -66 -44 -126 -115 l-50 -60 -98 0 c-93 -1 -103 -3 -157 -33 -32 -18 -62 -30
-66 -28 -5 3 -11 23 -15 44 -3 21 -17 59 -30 84 l-24 45 22 24 c11 13 45 55
75 92 54 68 54 69 44 113 -10 42 -9 46 15 64 13 11 33 20 44 20 10 0 44 14 76
31 53 28 60 29 94 18 27 -9 44 -9 65 -1 15 6 53 14 83 17 105 12 168 60 195
145 4 14 21 45 37 69 26 40 30 53 29 120 0 81 -26 182 -58 226 -21 28 -27 30
-41 13z"/>
<path d="M8274 32377 c-6 -17 26 -99 72 -186 116 -219 388 -484 591 -576 17
-8 34 -19 38 -25 3 -5 15 -10 26 -10 10 0 19 -4 19 -10 0 -5 7 -10 15 -10 8 0
15 4 15 10 0 8 -61 84 -81 100 -4 3 -9 15 -13 27 -6 19 -2 25 20 34 23 8 25
12 14 19 -8 6 -22 10 -31 10 -9 0 -30 7 -45 15 -16 8 -36 15 -44 15 -46 1 -95
30 -114 67 -26 49 -41 61 -156 131 -152 91 -220 175 -257 317 -10 39 -22 73
-28 77 -16 12 -35 9 -41 -5z"/>
<path d="M6476 31653 c-9 -10 -94 -59 -121 -72 -12 -5 -62 -34 -111 -64 -50
-30 -101 -58 -112 -61 -12 -4 -22 -12 -22 -17 0 -5 -5 -9 -11 -9 -6 0 -60 -29
-119 -65 -59 -36 -110 -65 -113 -65 -2 0 -68 -38 -146 -85 -79 -47 -145 -85
-148 -85 -3 0 -61 -34 -130 -75 -68 -41 -126 -75 -128 -75 -3 0 -54 -29 -114
-65 -60 -36 -112 -65 -114 -65 -2 0 -57 -31 -121 -70 -65 -38 -121 -70 -125
-70 -4 0 -17 -9 -29 -20 l-22 -21 0 -984 0 -985 40 -25 c22 -14 64 -39 93 -55
28 -16 72 -41 97 -55 25 -14 59 -34 75 -45 17 -11 39 -24 50 -30 11 -5 47 -26
80 -45 33 -19 67 -38 75 -42 8 -4 47 -26 86 -50 39 -24 77 -43 83 -43 6 0 11
-4 11 -9 0 -5 12 -14 28 -20 15 -7 36 -17 47 -24 87 -52 245 -144 265 -154 14
-7 32 -17 40 -23 35 -22 155 -92 174 -101 12 -5 35 -18 51 -29 17 -11 37 -23
45 -27 8 -4 65 -36 125 -73 61 -36 121 -71 135 -78 14 -7 39 -21 55 -31 17
-11 37 -20 46 -20 13 -1 68 26 139 69 8 5 51 29 95 55 44 25 87 50 95 55 8 6
27 15 43 21 15 6 27 15 27 20 0 5 5 9 11 9 9 0 120 62 179 100 8 6 34 19 57
31 23 11 47 27 54 35 6 8 16 14 21 14 9 0 125 65 178 100 8 6 26 15 40 21 13
5 27 13 30 17 3 4 16 13 30 19 34 17 96 53 147 86 24 15 45 27 48 27 3 0 51
27 105 60 55 32 130 76 167 96 98 54 104 57 150 87 24 15 46 27 51 27 5 0 18
10 30 23 l22 23 0 915 c0 503 -3 945 -7 982 -7 75 -7 75 -113 132 -19 11 -72
41 -116 67 -45 27 -84 48 -87 48 -3 0 -62 34 -130 75 -69 41 -130 75 -136 75
-6 0 -11 4 -11 9 0 5 -9 13 -21 16 -11 4 -69 35 -127 69 -284 167 -358 210
-372 217 -8 4 -76 44 -151 88 -76 45 -139 81 -142 81 -2 0 -69 38 -148 85
-143 85 -159 92 -173 78z m247 -861 c7 -5 37 -14 67 -20 206 -38 445 -194 601
-392 68 -87 73 -94 122 -195 69 -141 91 -213 112 -372 14 -111 14 -132 0 -250
-16 -124 -32 -194 -61 -260 -8 -17 -14 -35 -14 -41 0 -20 -107 -206 -145 -251
-99 -119 -217 -229 -271 -253 -13 -6 -24 -14 -24 -18 0 -8 -153 -85 -212 -106
-141 -51 -187 -58 -383 -58 -132 -1 -204 3 -235 12 -151 45 -180 56 -230 79
-60 29 -168 91 -187 108 -6 5 -26 21 -45 35 -91 68 -199 191 -266 302 -34 55
-82 152 -82 164 0 7 -7 25 -15 40 -8 16 -15 37 -15 47 0 9 -4 25 -9 35 -36 64
-51 337 -26 465 16 83 40 175 55 212 15 38 90 190 102 210 60 92 192 234 283
302 57 42 193 123 208 123 7 0 22 7 33 15 10 8 26 15 34 15 8 0 26 6 40 13 15
8 48 17 74 20 27 4 54 11 60 16 6 6 34 12 61 14 82 8 355 -1 368 -11z"/>
<path d="M2893 31347 c-13 -18 -23 -37 -23 -42 0 -10 23 -31 115 -102 33 -26
62 -50 65 -53 3 -3 23 -17 45 -32 22 -15 54 -39 70 -54 17 -14 40 -33 53 -41
31 -21 28 -47 -13 -101 -50 -67 -54 -72 -68 -72 -7 0 -49 23 -92 52 -278 179
-308 198 -326 198 -17 0 -58 -70 -52 -87 3 -7 29 -27 60 -45 30 -18 67 -40 82
-49 46 -27 39 -63 -27 -146 -42 -54 -68 -55 -166 -8 -40 19 -78 35 -84 35 -6
0 -23 -16 -39 -36 -27 -36 -27 -37 -8 -51 46 -35 153 -78 205 -83 54 -5 55 -6
76 -51 42 -87 129 -135 211 -114 59 14 62 18 221 265 20 30 70 100 111 155 93
124 82 110 137 175 69 84 70 86 32 120 -18 17 -37 30 -43 30 -7 0 -29 -25 -51
-55 -23 -32 -47 -55 -57 -55 -17 0 -158 100 -226 159 -13 12 -27 21 -30 21 -3
0 -17 10 -31 23 -45 41 -97 77 -111 77 -8 0 -24 -15 -36 -33z m67 -526 c0 -5
10 -13 23 -17 50 -15 125 -94 89 -94 -4 0 -16 -17 -27 -37 -38 -71 -63 -93
-105 -93 -51 0 -100 40 -100 81 0 26 43 110 78 152 16 18 42 23 42 8z"/>
<path d="M10758 31224 c-107 -39 -119 -66 -116 -266 l3 -153 295 0 295 0 0 55
0 55 -82 -3 c-122 -6 -119 -7 -128 99 -11 142 -35 183 -127 213 -55 19 -89 19
-140 0z m131 -115 c28 -23 41 -84 32 -151 l-6 -43 -60 -3 c-33 -2 -75 0 -92 3
l-33 6 0 74 c0 69 2 75 31 104 37 37 90 42 128 10z"/>
<path d="M11162 30707 c-7 -8 -12 -67 -14 -153 l-3 -139 -75 0 -75 0 -5 130
-5 130 -50 0 -50 0 -1 -105 c-1 -177 5 -160 -63 -160 -37 0 -63 5 -68 13 -4 6
-9 70 -10 142 -3 142 -6 149 -66 143 l-32 -3 -3 -202 c-1 -112 1 -203 5 -203
5 0 78 -2 163 -4 85 -3 216 -2 291 1 l137 6 6 141 c3 78 2 170 -2 206 -7 63
-8 65 -38 68 -17 2 -36 -3 -42 -11z"/>
<path d="M10502 30582 c-36 -33 -42 -45 -42 -78 0 -21 4 -44 8 -50 7 -11 87
-64 97 -64 14 0 2 59 -15 75 -11 10 -20 26 -20 35 0 9 9 25 20 35 23 21 28 85
7 85 -8 0 -32 -17 -55 -38z"/>
<path d="M8880 29441 c0 -1023 -2 -1141 -16 -1155 -8 -9 -20 -16 -25 -16 -5 0
-26 -11 -47 -24 -20 -13 -62 -37 -92 -53 -30 -16 -86 -47 -125 -68 -38 -20
-74 -41 -80 -45 -9 -7 -57 -33 -195 -108 -25 -13 -70 -39 -101 -58 -31 -19
-59 -34 -63 -34 -3 0 -35 -18 -71 -40 -36 -22 -68 -40 -71 -40 -4 0 -40 -20
-81 -45 -40 -25 -76 -45 -80 -45 -3 0 -39 -20 -80 -45 -40 -25 -76 -45 -80
-45 -3 0 -31 -15 -62 -34 -31 -19 -83 -49 -116 -66 -33 -18 -85 -46 -115 -62
-30 -17 -59 -34 -65 -38 -10 -8 -128 -72 -180 -98 -16 -9 -32 -18 -35 -21 -3
-3 -21 -14 -40 -25 -19 -10 -64 -34 -100 -54 -36 -19 -77 -42 -93 -49 -15 -8
-31 -23 -37 -33 -6 -11 -10 -472 -10 -1233 0 -964 3 -1216 12 -1219 23 -8 324
29 349 43 10 5 33 9 52 9 19 0 59 7 88 16 30 9 75 22 101 30 26 8 55 14 65 14
10 0 30 6 45 14 14 8 45 17 67 21 23 4 41 11 41 16 0 5 9 9 21 9 12 0 37 7 57
16 86 37 99 42 130 48 17 4 32 12 32 17 0 5 5 9 11 9 20 0 310 140 374 181 17
10 39 23 50 29 75 40 322 210 366 252 8 7 30 26 49 42 135 109 273 242 360
346 25 30 59 70 76 90 28 31 160 208 192 256 48 73 79 122 85 135 4 8 21 37
37 64 17 28 55 102 86 165 52 108 66 137 92 200 6 14 20 46 31 72 12 26 21 53
21 60 0 8 4 18 8 23 9 10 68 187 98 295 9 30 20 70 25 87 6 18 14 54 19 80 5
27 13 66 18 88 26 104 38 190 63 440 12 127 6 554 -10 630 -6 28 -15 84 -20
125 -13 97 -52 284 -71 344 -5 17 -19 65 -30 106 -12 41 -25 82 -29 90 -5 9
-12 30 -15 48 -4 17 -12 34 -17 37 -5 4 -9 13 -9 21 0 13 -11 41 -50 129 -5
11 -19 43 -31 70 -11 28 -41 90 -65 138 -141 280 -318 546 -538 807 -83 99
-160 180 -170 180 -3 0 -6 -513 -6 -1139z"/>
<path d="M2402 30544 c-69 -36 -132 -146 -132 -232 0 -45 29 -109 61 -139 26
-23 216 -123 236 -123 30 0 40 -29 41 -125 0 -53 3 -99 6 -102 6 -7 107 -5
114 1 2 3 1 26 -2 51 -6 38 -11 45 -30 45 -27 0 -46 18 -46 42 0 27 28 34 60
14 16 -9 35 -16 44 -16 15 0 46 58 46 86 0 8 -76 51 -183 103 -205 101 -237
124 -237 173 0 42 30 99 61 116 29 15 107 7 130 -14 8 -8 20 -14 25 -14 5 0
51 -21 104 -47 177 -86 192 -93 204 -93 12 0 46 65 46 88 0 6 -21 21 -47 33
-27 12 -113 53 -193 92 -125 60 -154 71 -210 74 -48 3 -74 -1 -98 -13z"/>
<path d="M11337 30543 c-11 -10 -8 -58 3 -69 5 -5 26 -8 45 -6 33 4 35 6 35
43 0 39 0 39 -38 39 -21 0 -42 -3 -45 -7z"/>
<path d="M10647 30193 c-10 -9 -9 -103 1 -103 187 -3 585 1 592 5 17 11 12 92
-6 99 -21 8 -579 8 -587 -1z"/>
<path d="M10647 29983 c-13 -12 -8 -103 6 -104 6 0 44 0 84 1 39 1 87 -2 107
-5 l36 -7 0 -103 c0 -130 0 -130 -134 -131 l-101 -1 0 -54 0 -54 298 -3 298
-2 -3 52 -3 53 -117 5 c-64 3 -120 9 -125 13 -8 9 -21 215 -14 223 2 2 57 4
122 4 64 0 124 3 133 6 23 9 23 99 0 108 -21 8 -579 8 -587 -1z"/>
<path d="M2191 29874 c-78 -17 -136 -61 -171 -130 -21 -41 -25 -63 -25 -134 0
-71 4 -91 23 -122 52 -84 171 -158 254 -158 73 0 86 -8 102 -59 9 -25 17 -62
18 -81 l3 -35 -50 1 c-27 0 -97 8 -155 18 -58 10 -141 23 -185 30 -44 8 -88
17 -97 21 -13 5 -19 0 -23 -22 -3 -15 -11 -36 -17 -47 -11 -21 3 -36 38 -36
12 0 34 -4 50 -10 16 -5 61 -14 99 -19 129 -18 185 -32 185 -47 0 -8 -6 -14
-12 -14 -7 0 -25 -6 -39 -14 -15 -7 -55 -23 -90 -35 -125 -43 -234 -85 -256
-99 -14 -8 -23 -24 -23 -39 0 -13 -5 -33 -10 -43 -16 -30 -12 -32 185 -61 44
-6 89 -15 100 -20 11 -5 58 -13 105 -18 47 -6 111 -15 144 -21 32 -6 61 -8 64
-6 9 9 12 80 4 92 -7 10 -49 18 -262 48 -80 11 -85 13 -85 36 0 19 7 26 34 31
18 4 43 12 55 18 29 15 154 61 191 70 17 4 39 13 50 18 11 6 32 15 46 21 29
11 43 60 32 112 -4 22 -1 29 16 35 16 5 21 14 21 43 0 49 -8 58 -52 66 -32 6
-38 11 -38 31 0 19 9 28 35 39 91 39 165 155 165 261 0 130 -131 259 -285 279
-27 4 -57 9 -65 10 -8 2 -44 -2 -79 -10z m158 -115 c163 -62 216 -181 123
-279 -29 -29 -48 -40 -83 -45 -140 -21 -299 76 -299 183 0 84 78 161 165 162
22 0 64 -9 94 -21z"/>
<path d="M2775 29556 c-16 -8 -47 -22 -68 -31 -38 -18 -63 -48 -52 -65 7 -12
90 -1 123 16 38 19 70 94 40 94 -7 0 -26 -7 -43 -14z"/>
<path d="M10926 29432 c-10 -16 -9 -203 1 -213 6 -6 23 -9 39 -7 25 3 29 8 39
58 9 49 13 55 37 58 20 2 37 -7 67 -37 37 -37 41 -46 41 -89 0 -86 -48 -133
-167 -163 -45 -11 -59 -10 -104 4 -28 9 -56 17 -63 17 -6 0 -29 16 -51 36 -39
34 -40 37 -40 99 0 62 2 65 40 100 22 19 43 35 48 35 8 0 10 84 2 92 -12 12
-84 -15 -120 -45 -49 -40 -78 -106 -78 -183 -1 -136 83 -226 247 -261 78 -16
163 -6 242 28 40 18 101 76 123 117 30 55 21 194 -15 229 -21 21 -17 50 7 56
16 4 20 12 17 34 -3 27 -6 28 -68 34 -97 10 -238 10 -244 1z"/>
<path d="M10618 28828 c-3 -24 -3 -49 0 -55 3 -10 48 -13 176 -13 260 0 260
-13 6 -142 l-185 -94 0 -59 0 -60 220 -6 c121 -4 255 -10 298 -14 l78 -8 -3
54 -3 54 -175 3 c-96 1 -181 4 -188 7 -24 9 11 45 71 73 31 14 57 30 57 34 0
4 8 8 18 8 10 0 26 6 37 14 35 23 132 73 156 79 13 4 29 15 36 25 13 22 20 93
10 109 -5 7 -58 12 -160 12 -83 1 -192 6 -242 11 -49 5 -115 10 -146 10 l-57
0 -4 -42z"/>
<path d="M2008 28645 c-123 -27 -191 -81 -222 -176 -23 -68 -20 -112 11 -175
l26 -54 -26 -24 c-47 -43 -37 -56 46 -57 39 -1 88 -4 107 -7 19 -3 60 -6 89
-6 66 -1 68 4 70 131 1 81 0 83 -25 89 -14 4 -36 2 -50 -5 -21 -9 -24 -17 -24
-61 0 -44 -3 -50 -20 -50 -30 0 -75 25 -92 52 -57 89 -11 195 99 226 73 21
112 25 126 14 6 -5 31 -13 54 -17 79 -13 144 -102 127 -173 -9 -35 -21 -50
-65 -78 -29 -18 -38 -30 -41 -61 -7 -56 -3 -61 46 -53 130 20 204 190 141 324
-43 90 -107 136 -230 161 -79 17 -70 17 -147 0z"/>
<path d="M10720 28101 c-100 -20 -164 -108 -163 -226 0 -104 34 -165 123 -221
25 -15 65 -32 90 -37 75 -15 191 -20 203 -8 6 6 23 11 37 11 41 0 119 60 148
115 35 66 33 196 -4 236 -19 21 -12 37 22 49 26 10 32 41 11 59 -11 8 -204 26
-287 26 -22 0 -39 -60 -39 -142 l-1 -73 40 0 c24 0 42 5 44 13 2 6 8 30 12 52
12 55 34 56 89 1 39 -39 45 -51 45 -86 0 -59 -39 -116 -96 -141 -90 -38 -221
-17 -291 48 -37 33 -38 37 -38 99 0 71 -5 63 85 133 26 20 31 29 28 59 -3 40
-8 42 -58 33z"/>
<path d="M2065 27906 c-16 -38 -25 -41 -140 -52 -44 -3 -91 -11 -104 -16 -21
-8 -23 -13 -18 -56 25 -229 44 -285 113 -337 83 -63 268 -67 386 -8 61 31 114
95 123 151 4 24 1 104 -6 178 -14 156 -16 159 -100 144 -102 -19 -169 -23
-169 -12 0 17 -30 42 -51 42 -13 0 -25 -12 -34 -34z m249 -153 c21 -61 20
-101 -3 -149 -19 -39 -43 -56 -125 -88 -80 -33 -194 -8 -232 49 -20 30 -47
156 -35 168 11 11 139 30 157 23 7 -3 14 -18 14 -33 0 -59 10 -74 44 -71 31 3
31 4 31 58 0 52 1 55 30 63 17 5 37 13 45 18 38 20 58 10 74 -38z"/>
<path d="M10526 27575 c-3 -9 -6 -34 -6 -55 0 -37 1 -38 43 -45 23 -4 47 -11
52 -15 6 -4 30 -11 55 -15 25 -4 65 -13 90 -20 25 -8 57 -16 73 -19 20 -5 27
-12 27 -30 0 -21 -6 -24 -52 -30 -28 -4 -57 -10 -62 -14 -6 -4 -33 -12 -61
-19 -27 -6 -79 -18 -115 -27 -36 -9 -76 -19 -90 -23 -37 -9 -50 -22 -50 -54 0
-15 -4 -31 -10 -34 -5 -3 -10 -10 -10 -14 0 -11 106 -51 135 -51 13 0 26 -4
29 -9 4 -5 25 -12 49 -16 39 -6 69 -15 187 -51 25 -8 54 -14 65 -14 12 0 25
-4 30 -9 6 -5 26 -12 46 -16 31 -6 39 -3 53 16 19 28 21 63 4 76 -11 9 -60 22
-280 76 -56 14 -63 20 -50 43 10 17 57 32 182 55 30 5 59 14 65 20 5 5 19 9
31 9 40 0 126 33 140 55 7 11 15 36 16 54 3 30 0 35 -27 43 -49 15 -137 38
-185 49 -25 6 -54 14 -65 20 -11 5 -40 13 -65 18 -65 14 -132 31 -155 41 -45
20 -82 22 -89 5z"/>
<path d="M1887 27284 c-9 -9 2 -74 16 -91 5 -7 32 -13 61 -14 78 -1 88 -8 104
-75 7 -32 16 -78 19 -101 5 -40 4 -42 -40 -67 -66 -39 -71 -48 -56 -93 6 -21
14 -44 16 -52 3 -11 7 -11 21 3 10 9 21 16 24 16 6 0 192 120 213 137 6 5 28
20 50 33 22 13 42 27 45 30 3 3 23 17 45 30 22 13 42 26 45 30 3 3 24 18 48
34 23 16 42 36 42 45 0 28 -20 90 -31 97 -6 4 -61 8 -123 11 -61 2 -138 8
-171 13 -88 13 -319 24 -328 14z m468 -138 c0 -23 -129 -107 -158 -103 -20 2
-47 63 -47 105 0 22 2 23 103 20 93 -3 102 -5 102 -22z"/>
<path d="M1782 27041 c-8 -5 -12 -22 -10 -42 3 -37 25 -47 75 -34 21 5 24 10
18 33 -4 15 -11 33 -17 39 -12 15 -47 17 -66 4z"/>
<path d="M10432 26991 c-95 -36 -155 -132 -155 -246 0 -59 4 -78 27 -117 44
-75 92 -112 208 -162 57 -25 190 -22 246 7 52 26 109 89 129 144 21 58 18 150
-7 200 -71 146 -295 233 -448 174z m186 -100 c9 -5 36 -19 60 -30 47 -23 98
-73 113 -109 23 -59 -3 -130 -63 -169 -35 -24 -45 -25 -109 -20 -53 5 -84 14
-127 38 -62 35 -83 56 -108 111 -16 35 -16 40 0 83 10 26 33 58 54 75 32 26
44 30 99 30 35 0 71 -4 81 -9z"/>
<path d="M10207 26960 c-21 -4 -44 -13 -51 -21 -19 -21 -36 -77 -29 -97 9 -25
63 -92 74 -92 12 0 11 67 -2 91 -14 27 -2 59 22 59 23 0 59 34 59 55 0 16 -13
17 -73 5z"/>
<path d="M2585 26902 c-34 -7 -229 -72 -247 -82 -10 -6 -26 -10 -35 -10 -10 0
-30 -6 -45 -14 -15 -8 -41 -17 -59 -21 -19 -4 -40 -11 -49 -16 -8 -5 -34 -13
-58 -19 -48 -12 -60 -30 -44 -63 6 -12 14 -32 17 -45 5 -16 10 -20 18 -14 7 6
31 13 55 17 23 4 42 11 42 16 0 5 10 9 23 9 12 0 35 7 51 15 15 8 36 15 45 15
9 0 29 7 45 15 15 8 36 15 45 15 9 0 28 6 43 14 15 8 42 17 60 21 18 4 38 11
43 15 6 4 26 10 46 14 39 7 78 39 60 51 -6 3 -11 14 -11 24 0 26 -23 48 -45
43z"/>
<path d="M2630 26546 c-36 -18 -96 -50 -135 -71 -38 -21 -122 -65 -185 -97
-63 -33 -119 -63 -123 -67 -9 -9 32 -101 45 -101 9 0 91 41 98 49 13 15 100
51 122 51 21 0 31 -13 67 -84 27 -54 41 -92 37 -104 -4 -12 -41 -36 -94 -63
-122 -60 -123 -61 -103 -104 24 -53 44 -52 161 6 58 29 107 55 110 58 3 3 48
28 100 55 52 26 116 59 143 73 55 28 60 51 23 98 l-24 29 -91 -47 c-50 -26
-98 -47 -105 -47 -7 0 -30 33 -51 73 -20 39 -41 76 -46 82 -22 22 -9 52 34 74
124 65 142 78 139 102 -3 30 -29 69 -45 68 -6 0 -41 -15 -77 -33z"/>
<path d="M10191 26459 c-119 -54 -178 -210 -124 -329 24 -53 105 -137 150
-156 17 -8 34 -18 38 -24 3 -5 19 -10 34 -10 15 0 32 -5 38 -11 6 -6 40 -12
75 -13 147 -3 268 110 268 251 0 66 -26 124 -80 179 -41 42 -54 43 -74 2 -22
-43 -20 -67 7 -92 59 -55 54 -142 -11 -195 -31 -27 -45 -31 -94 -31 -32 0 -66
4 -76 9 -9 4 -35 17 -57 27 -53 25 -121 95 -128 132 -11 56 3 100 44 137 32
29 47 35 82 35 40 0 44 2 60 38 9 21 17 43 17 49 0 29 -107 31 -169 2z"/>
<path d="M2860 26053 c-61 -10 -160 -62 -213 -112 -153 -145 -125 -372 58
-457 48 -23 149 -25 191 -5 96 44 122 61 166 104 91 88 123 217 79 319 -20 47
-86 111 -136 132 -36 15 -110 25 -145 19z m137 -132 c63 -47 76 -143 28 -208
-24 -33 -52 -61 -90 -90 -58 -46 -173 -60 -216 -28 -93 70 -87 183 16 272 90
78 199 100 262 54z"/>
<path d="M9851 25909 c-11 -11 -29 -32 -38 -47 -10 -15 -41 -58 -69 -97 -28
-38 -71 -100 -97 -136 l-46 -66 29 -22 c39 -28 63 -27 86 6 10 14 30 39 44 55
l25 28 52 -32 c82 -52 167 -111 178 -124 17 -19 186 -129 189 -122 0 2 11 17
24 35 12 18 22 38 22 46 0 11 -119 105 -191 149 -14 9 -32 23 -40 30 -8 7 -34
26 -59 42 -25 16 -57 43 -72 58 -31 33 -30 36 34 120 l28 36 -38 31 -39 30
-22 -20z"/>
<path d="M3204 25601 c-97 -25 -215 -119 -252 -201 -50 -112 -53 -137 -23
-215 42 -110 146 -183 245 -171 27 3 54 10 60 16 5 5 18 10 27 10 9 0 27 9 40
19 l24 20 -38 38 c-33 33 -39 36 -57 25 -11 -7 -41 -15 -65 -19 -37 -5 -51 -2
-79 18 -36 24 -66 79 -66 120 0 67 87 175 173 218 80 38 160 18 201 -51 18
-29 22 -103 6 -113 -18 -11 -9 -40 25 -78 l34 -39 30 54 c68 118 19 263 -111
329 -45 23 -127 32 -174 20z"/>
<path d="M2472 25544 c-28 -20 -28 -45 1 -72 l23 -22 32 23 c38 26 38 30 10
62 -25 29 -36 31 -66 9z"/>
<path d="M9323 25517 c-10 -5 -26 -20 -37 -34 -17 -23 -18 -30 -6 -80 8 -29
17 -56 20 -58 4 -3 15 4 25 15 14 15 16 29 11 60 l-6 40 43 0 c33 0 49 6 67
25 18 19 20 26 9 29 -27 9 -109 11 -126 3z"/>
<path d="M9432 25376 c-18 -20 -32 -41 -32 -47 0 -12 93 -189 209 -398 23 -41
41 -77 41 -80 0 -3 11 -23 24 -44 l24 -39 36 35 c20 20 36 40 36 46 0 5 -11
31 -25 57 -14 26 -25 55 -25 65 0 22 115 159 134 159 7 0 34 -11 60 -25 26
-14 54 -25 62 -25 18 0 75 60 71 75 -3 10 -72 47 -138 74 -19 7 -52 22 -74 31
-22 10 -62 28 -90 40 -77 35 -157 70 -192 86 -67 30 -87 29 -121 -10z m237
-154 c41 -21 77 -44 79 -50 2 -6 -16 -32 -39 -57 l-43 -46 -22 23 c-32 32 -86
138 -80 154 8 21 24 17 105 -24z"/>
<path d="M3724 25158 c-16 -18 -83 -98 -148 -178 -65 -80 -134 -165 -154 -189
-56 -67 -56 -66 -13 -100 21 -17 42 -31 46 -31 9 0 46 41 87 97 32 44 37 47
99 57 53 9 55 -6 19 -243 l-12 -75 49 -42 c26 -24 53 -42 58 -40 6 1 13 36 16
77 3 41 12 130 19 199 16 156 22 164 133 173 41 4 97 12 124 18 80 19 80 19
59 32 -11 7 -34 24 -52 40 -36 31 -12 31 -224 -7 -41 -8 -84 -16 -95 -18 -38
-6 -26 31 34 105 34 40 61 80 61 89 0 14 -56 68 -70 68 -4 0 -20 -15 -36 -32z"/>
<path d="M9176 25120 l-30 -29 29 -38 c28 -36 124 -152 135 -163 13 -12 98
-127 108 -147 21 -38 14 -71 -24 -113 -44 -49 -92 -61 -139 -36 -18 10 -88 87
-156 171 -132 164 -144 172 -193 134 -34 -27 -33 -45 8 -94 19 -22 79 -95 135
-161 111 -134 151 -165 227 -172 84 -7 183 49 235 133 34 57 34 153 0 210 -14
22 -28 42 -31 45 -3 3 -30 37 -60 75 -30 39 -57 72 -60 75 -3 3 -24 27 -45 55
-22 27 -47 57 -55 67 -21 26 -50 21 -84 -12z"/>
<path d="M9942 24907 c-27 -29 -27 -38 -2 -60 28 -23 52 -21 78 6 l22 23 -28
27 c-34 33 -43 33 -70 4z"/>
<path d="M4134 24858 c-3 -12 -11 -26 -16 -32 -10 -12 -79 -111 -148 -211 -25
-36 -69 -99 -97 -139 -29 -41 -53 -81 -53 -90 0 -14 64 -66 81 -66 4 0 38 46
76 102 37 57 72 107 76 113 4 5 30 42 57 80 27 39 67 95 88 125 21 30 42 60
45 67 4 7 -13 23 -43 42 -28 17 -52 31 -54 31 -3 0 -8 -10 -12 -22z"/>
<path d="M8763 24798 c-42 -26 -42 -48 3 -108 18 -24 64 -110 64 -120 0 -11
-163 -110 -182 -110 -20 0 -37 21 -88 108 -23 39 -46 72 -51 72 -13 0 -86 -47
-94 -59 -3 -6 -24 -15 -46 -21 -22 -6 -70 -25 -107 -41 -37 -17 -76 -34 -87
-39 -11 -5 -51 -23 -88 -39 -38 -17 -71 -31 -75 -31 -4 0 -13 -4 -20 -8 -10
-7 -9 -18 7 -55 22 -51 23 -52 49 -37 45 25 114 50 122 45 9 -6 30 -47 79
-160 13 -27 29 -63 36 -80 54 -120 73 -163 79 -183 7 -22 40 -31 50 -13 3 4
19 11 36 14 16 4 30 11 30 17 0 11 -16 50 -72 170 -31 67 -33 71 -68 155 -12
28 -28 65 -36 83 -14 30 -14 36 0 58 9 13 21 24 28 24 6 0 29 9 52 21 39 19
42 23 38 55 -3 26 -1 34 12 34 9 0 16 -8 16 -20 0 -11 7 -23 15 -26 8 -4 15
-11 15 -16 0 -11 216 -374 237 -400 16 -18 26 -16 79 17 l31 19 -58 97 c-57
93 -67 122 -51 145 9 12 109 74 121 74 5 0 14 7 21 15 7 8 18 15 24 15 11 0
55 -62 93 -130 49 -90 53 -92 112 -58 l38 21 -25 46 c-34 66 -244 415 -252
421 -4 3 -10 15 -14 28 -9 27 -30 27 -73 0z"/>
<path d="M4226 24661 c-36 -60 -66 -114 -66 -120 0 -6 -4 -11 -9 -11 -5 0 -13
-10 -17 -22 -3 -12 -23 -49 -43 -82 -47 -78 -91 -163 -91 -176 0 -6 8 -14 18
-17 9 -4 23 -13 30 -20 7 -7 18 -13 23 -13 9 0 75 96 86 128 4 9 18 35 32 57
14 22 35 58 47 80 12 22 29 41 38 43 14 3 16 -19 16 -205 0 -173 3 -212 16
-231 8 -12 20 -22 26 -22 6 0 20 -7 30 -16 13 -13 21 -14 31 -6 12 11 84 126
100 162 4 8 16 29 27 45 11 17 23 37 27 45 4 8 26 47 50 86 24 39 43 74 43 78
0 4 11 24 25 46 14 22 25 45 25 52 0 12 -60 48 -79 48 -8 0 -121 -181 -121
-194 0 -2 -17 -32 -37 -66 -56 -95 -63 -75 -63 184 l0 211 -40 23 c-21 12 -43
22 -49 22 -5 0 -39 -49 -75 -109z"/>
<path d="M4725 24484 c-8 -20 -15 -39 -15 -42 0 -2 -10 -26 -21 -51 -12 -25
-25 -55 -30 -66 -13 -34 -50 -119 -59 -140 -31 -67 -80 -196 -80 -209 0 -21
44 -48 72 -44 22 3 29 13 61 88 55 124 58 130 83 130 13 0 41 -9 61 -20 21
-11 43 -20 50 -20 6 0 26 -8 43 -17 29 -17 31 -21 25 -56 -3 -21 -10 -46 -15
-55 -9 -18 -29 -62 -54 -124 l-14 -37 29 -6 c16 -4 31 -11 34 -16 15 -23 46
-8 61 29 8 20 19 46 24 57 10 23 38 90 65 155 10 25 31 73 47 108 15 34 28 67
28 72 0 6 4 18 9 28 6 9 17 33 26 52 15 33 15 35 -7 52 -31 23 -67 31 -83 18
-8 -7 -19 -27 -26 -47 -6 -19 -17 -47 -25 -61 -8 -15 -14 -31 -14 -36 0 -6
-10 -20 -21 -32 -15 -16 -26 -20 -38 -14 -9 5 -34 17 -56 26 -90 38 -125 56
-125 66 0 10 24 64 66 152 22 45 18 64 -16 71 -16 4 -32 11 -35 16 -13 20 -35
7 -50 -27z"/>
<path d="M7630 24465 c-19 -20 -33 -25 -93 -27 -62 -3 -72 -6 -87 -28 -10 -14
-21 -37 -24 -52 -5 -24 -3 -28 14 -28 12 0 25 10 32 25 11 23 16 25 87 25 42
0 82 4 88 8 13 8 21 87 11 97 -2 3 -15 -6 -28 -20z"/>
<path d="M6313 24380 c-26 -11 -96 -101 -86 -111 9 -8 29 -12 53 -10 8 0 38
21 65 46 28 25 53 45 58 45 4 0 7 7 7 15 0 9 -9 15 -24 15 -13 0 -30 2 -38 4
-7 3 -23 1 -35 -4z"/>
<path d="M7753 24318 c-39 -8 -43 -12 -48 -46 -4 -20 -10 -48 -15 -62 -5 -14
-12 -43 -16 -65 -8 -46 -30 -95 -44 -95 -5 0 -15 9 -23 20 -7 11 -43 51 -80
90 -68 72 -79 77 -145 64 -58 -12 -49 -31 75 -156 122 -123 170 -184 179 -227
3 -15 12 -47 20 -73 8 -26 14 -56 14 -68 0 -26 26 -37 51 -22 10 7 28 12 38
12 29 0 33 14 17 62 -38 120 -48 177 -37 210 6 18 15 53 20 78 5 25 19 81 31
125 12 44 26 99 30 123 8 47 8 47 -67 30z"/>
<path d="M5994 24264 c-34 -35 -42 -49 -32 -55 22 -15 54 -10 82 12 30 24 66
18 66 -11 0 -21 28 -40 59 -40 30 0 31 11 8 62 -17 37 -31 51 -60 63 -57 23
-73 19 -123 -31z"/>
<path d="M5324 24255 c-28 -67 -13 -84 75 -85 14 0 36 -8 48 -18 23 -17 23
-17 7 -87 -26 -114 -42 -186 -59 -255 -37 -149 -39 -161 -24 -171 8 -5 34 -8
59 -7 43 3 45 5 51 38 4 19 15 67 24 105 9 39 23 99 30 135 8 36 18 78 24 93
6 16 11 41 11 56 0 42 21 54 77 47 27 -4 64 -8 83 -9 l35 -2 3 48 c2 26 -1 47
-5 47 -23 2 -315 71 -373 89 -49 15 -49 15 -66 -24z"/>
<path d="M7197 24178 c-24 -24 -96 -131 -138 -205 -13 -24 -29 -43 -36 -43
-15 0 -33 64 -43 153 -4 38 -10 70 -13 73 -5 6 -87 -15 -99 -25 -4 -3 -3 -33
2 -66 11 -64 30 -200 54 -384 9 -66 21 -121 29 -129 11 -10 25 -12 58 -5 36 7
43 13 41 29 -2 10 -6 54 -9 97 -4 64 -2 85 13 113 29 53 47 48 109 -31 22 -27
42 -52 45 -55 3 -3 23 -26 44 -52 38 -48 39 -48 100 -48 91 0 97 9 45 66 -88
97 -108 120 -168 192 -34 40 -61 77 -61 82 0 16 51 103 94 160 52 68 59 87 40
94 -34 13 -83 6 -107 -16z"/>
<path d="M5846 24139 c-3 -13 -7 -40 -10 -59 -4 -19 -13 -75 -21 -125 -8 -49
-22 -133 -30 -185 -8 -52 -19 -114 -23 -138 -6 -27 -6 -45 0 -48 6 -4 47 -10
92 -14 44 -5 106 -13 136 -19 128 -26 182 -33 190 -25 4 5 11 28 15 51 7 47
10 45 -80 57 -117 17 -206 33 -212 40 -11 11 -4 108 9 124 9 10 23 12 53 7
148 -24 220 -31 228 -21 4 6 6 27 5 46 -3 39 8 35 -163 61 -44 6 -86 17 -94
24 -19 19 -5 94 20 103 21 8 109 0 206 -19 34 -6 69 -9 77 -6 20 8 22 80 4 94
-7 6 -51 16 -98 22 -132 18 -253 39 -277 46 -18 6 -23 3 -27 -16z"/>
<path d="M6523 23802 l-103 -3 0 -44 0 -45 109 0 c90 0 110 3 115 16 10 26 7
61 -6 70 -7 5 -59 8 -115 6z"/>
</g>
</svg>
