<svg xmlns="http://www.w3.org/2000/svg" viewBox="0 0 50 50">
  <path d="M11 1C10.636719 1 10.304688 1.199219 10.125 1.515625L5.414063 10L21.75 10L31.570313 1 Z M 33.230469 2.195313L23.71875 10.90625L44 23.8125L44.382813 23.570313 Z M 7.402344 12L16.371094 14.929688L19.566406 12 Z M 23 12.824219L23 17.09375L36.804688 21.609375 Z M 21 13.402344L18.550781 15.640625L21 16.441406 Z M 16.859375 17.191406L8.34375 25L16.859375 32.808594L21 31.453125L21 18.546875 Z M 23 19.199219L23 30.800781L40.753906 25 Z M 44 26.1875L23.71875 39.09375L33.230469 47.808594L44.382813 26.429688 Z M 36.804688 28.390625L23 32.90625L23 37.175781 Z M 21 33.558594L18.550781 34.359375L21 36.597656 Z M 16.371094 35.070313L7.402344 38L19.566406 38 Z M 5.414063 40L10.125 48.484375C10.304688 48.800781 10.636719 49 11 49L31.570313 49L21.75 40Z" fill="#FFFFFF" />
</svg>