<svg xmlns="http://www.w3.org/2000/svg" viewBox="0 0 26 26">
  <path d="M6 0C5.398438 0 5 0.398438 5 1L5 2.40625C5.5 2.105469 6 2 6.5 2C8.398438 2 10 3.601563 10 5.5C10 6.398438 9.601563 7.304688 9 7.90625C9.699219 7.804688 10.6875 7.695313 11.1875 7.59375L13.40625 4.8125C14.007813 4.011719 15.386719 3.804688 16.1875 4.40625C17.085938 5.105469 17.195313 6.289063 16.59375 7.1875L13.90625 10.6875C13.605469 11.085938 13 11.492188 12.5 11.59375L11 12.09375L11 13L18 13L18 11L23 11L23.59375 12L23 13L25 13L25 1C25 0.398438 24.601563 0 24 0 Z M 6.5 3C5.121094 3 4 4.121094 4 5.5C4 6.878906 5.121094 8 6.5 8C7.878906 8 9 6.878906 9 5.5C9 4.121094 7.878906 3 6.5 3 Z M 14.875 5C14.613281 5.023438 14.335938 5.15625 14.1875 5.40625L11.8125 8.59375L9.03125 9L5 9C4.300781 9 3 9.199219 3 11L3 16.1875C3.300781 16.085938 3.601563 16 4 16C5.699219 16 7 17.300781 7 19C7 17.300781 8.300781 16 10 16L10 11.34375L12.1875 10.6875C12.585938 10.585938 12.894531 10.386719 13.09375 10.1875L15.8125 6.6875C16.113281 6.1875 15.992188 5.488281 15.59375 5.1875C15.394531 5.039063 15.136719 4.976563 14.875 5 Z M 11 14L11 16L26 16L26 15.09375C26 14.492188 25.507813 14 24.90625 14 Z M 4 17C2.894531 17 2 17.894531 2 19C2 20.105469 2.894531 21 4 21C5.105469 21 6 20.105469 6 19C6 17.894531 5.105469 17 4 17 Z M 4 21C2.300781 21 1 22.300781 1 24L1 26L25 26L25 24C25 22.300781 23.699219 21 22 21C20.300781 21 19 22.300781 19 24C19 22.300781 17.699219 21 16 21C14.300781 21 13 22.300781 13 24C13 22.300781 11.699219 21 10 21C8.300781 21 7 22.300781 7 24C7 22.300781 5.699219 21 4 21 Z M 10 21C11.105469 21 12 20.105469 12 19C12 17.894531 11.105469 17 10 17C8.894531 17 8 17.894531 8 19C8 20.105469 8.894531 21 10 21 Z M 16 21C17.105469 21 18 20.105469 18 19C18 17.894531 17.105469 17 16 17C14.894531 17 14 17.894531 14 19C14 20.105469 14.894531 21 16 21 Z M 22 21C23.105469 21 24 20.105469 24 19C24 17.894531 23.105469 17 22 17C20.894531 17 20 17.894531 20 19C20 20.105469 20.894531 21 22 21Z" fill="#FFFFFF" />
</svg>