<svg xmlns="http://www.w3.org/2000/svg" viewBox="0 0 30 30">
  <path d="M7 3.0019531C5.895 3.0019531 5 3.8969531 5 5.0019531L5 25.003906C5 26.108906 5.8910938 26.998047 6.9960938 26.998047C8.6537611 26.997693 10.13408 26.999663 12.65625 27L12.65625 27.001953L14.414062 28.757812C14.738062 29.080813 15.261938 29.080813 15.585938 28.757812L17.34375 27.001953L17.34375 27C19.378535 27.00044 23 27.001953 23 27.001953C24.105 27.001953 25 26.106953 25 25.001953L25 5.0019531C25 3.8969531 24.105 3.0019531 23 3.0019531L7 3.0019531 z M 15 8.5C15.828 8.5 16.5 9.172 16.5 10C16.5 10.828 15.828 11.5 15 11.5C14.172 11.5 13.5 10.828 13.5 10C13.5 9.172 14.172 8.5 15 8.5 z M 14 14L16 14L16 21L14 21L14 14 z" fill="#FFFFFF" />
</svg>