<svg xmlns="http://www.w3.org/2000/svg" viewBox="0 0 50 50">
  <path d="M40.90625 3C39.804688 3 39 3.804688 39 4.90625C39 6.007813 39.804688 6.8125 40.90625 6.8125C42.007813 6.8125 42.8125 6.007813 42.8125 4.90625C42.8125 3.804688 42.007813 3 40.90625 3 Z M 21 5C17.398438 5.101563 14.699219 6.207031 13 8.40625C11 11.007813 10.605469 15.085938 11.90625 20.1875C11.40625 20.6875 11.085938 21.585938 11.1875 22.6875C11.386719 24.886719 12.300781 25.789063 13 26.1875C13.300781 27.886719 14.289063 29.914063 15.1875 30.8125L15.1875 31.3125C15.1875 32.3125 15.195313 33.210938 15.09375 34.3125C14.492188 35.710938 12.699219 36.507813 10.5 37.40625C6.898438 38.90625 2.398438 40.804688 2 46.90625L1.90625 48L40.09375 48L40.09375 46.90625C39.695313 40.90625 35.195313 38.90625 31.59375 37.40625C29.492188 36.507813 27.601563 35.710938 27 34.3125C26.898438 33.210938 26.90625 32.3125 26.90625 31.3125L26.90625 30.8125C27.804688 29.914063 28.792969 27.886719 29.09375 26.1875C29.792969 25.789063 30.605469 24.886719 30.90625 22.6875C31.105469 21.585938 30.710938 20.789063 30.3125 20.1875C30.914063 18.1875 32 13.113281 30 9.8125C29.101563 8.414063 27.792969 7.488281 26.09375 7.1875C25.09375 5.789063 23.199219 5 21 5 Z M 38 9L38 11L40 11L40 21L38 21L38 23L44 23L44 21L42 21L42 9Z" fill="#FFFFFF" />
</svg>