<svg xmlns="http://www.w3.org/2000/svg" viewBox="0 0 30 30">
  <path d="M17 1.0507812L17 10.585938L23.744141 3.8398438C21.892141 2.2738437 19.561 1.2627812 17 1.0507812 z M 14 3.0507812C8.172 3.5327813 3.5327813 8.172 3.0507812 14L14 14L14 3.0507812 z M 24.158203 7.2558594L16.414062 15L24.158203 22.744141C25.927203 20.653141 27 17.954 27 15C27 12.046 25.927203 9.3468594 24.158203 7.2558594 z M 3.0507812 16C3.5607813 22.158 8.71 27 15 27C17.954 27 20.653141 25.927203 22.744141 24.158203L14.585938 16L3.0507812 16 z" fill="#FFFFFF" />
</svg>